<?xml version="1.0" encoding="UTF-8"?>
<svg version="1.1" xmlns="http://www.w3.org/2000/svg" width="808" height="183">
<path d="M0 0 C0.69375732 -0.00350464 1.38751465 -0.00700928 2.10229492 -0.01062012 C4.37665066 -0.01936069 6.65069037 -0.01361243 8.92504883 -0.00683594 C10.52297525 -0.00818556 12.12090127 -0.01012856 13.71882629 -0.01263428 C17.06340454 -0.01557582 20.40787566 -0.01132205 23.75244141 -0.00195312 C28.00759345 0.00939449 32.26249181 0.00290567 36.51763439 -0.00909805 C39.81822054 -0.01638263 43.11874825 -0.01399793 46.41933632 -0.00884247 C47.98638248 -0.00752172 49.5534342 -0.00909751 51.12047386 -0.01380157 C60.15259447 -0.03495449 68.81507241 0.38691918 77.69458008 2.25878906 C77.69458008 2.91878906 77.69458008 3.57878906 77.69458008 4.25878906 C79.01458008 4.25878906 80.33458008 4.25878906 81.69458008 4.25878906 C82.18958008 5.24878906 82.18958008 5.24878906 82.69458008 6.25878906 C84.71921263 6.91092198 84.71921263 6.91092198 86.69458008 7.25878906 C87.18958008 9.23878906 87.18958008 9.23878906 87.69458008 11.25878906 C88.35458008 11.25878906 89.01458008 11.25878906 89.69458008 11.25878906 C89.69458008 12.24878906 89.69458008 13.23878906 89.69458008 14.25878906 C90.35458008 14.25878906 91.01458008 14.25878906 91.69458008 14.25878906 C91.69458008 14.91878906 91.69458008 15.57878906 91.69458008 16.25878906 C92.35458008 16.25878906 93.01458008 16.25878906 93.69458008 16.25878906 C94.18958008 19.72378906 94.18958008 19.72378906 94.69458008 23.25878906 C95.35458008 23.25878906 96.01458008 23.25878906 96.69458008 23.25878906 C96.69458008 25.56878906 96.69458008 27.87878906 96.69458008 30.25878906 C97.35458008 30.25878906 98.01458008 30.25878906 98.69458008 30.25878906 C98.69458008 34.54878906 98.69458008 38.83878906 98.69458008 43.25878906 C99.35458008 43.25878906 100.01458008 43.25878906 100.69458008 43.25878906 C100.69458008 50.51878906 100.69458008 57.77878906 100.69458008 65.25878906 C100.03458008 65.25878906 99.37458008 65.25878906 98.69458008 65.25878906 C98.69458008 68.88878906 98.69458008 72.51878906 98.69458008 76.25878906 C98.03458008 76.25878906 97.37458008 76.25878906 96.69458008 76.25878906 C96.69458008 78.56878906 96.69458008 80.87878906 96.69458008 83.25878906 C96.03458008 83.25878906 95.37458008 83.25878906 94.69458008 83.25878906 C94.69458008 84.90878906 94.69458008 86.55878906 94.69458008 88.25878906 C96.01458008 87.59878906 97.33458008 86.93878906 98.69458008 86.25878906 C98.69458008 85.59878906 98.69458008 84.93878906 98.69458008 84.25878906 C102.15958008 83.76378906 102.15958008 83.76378906 105.69458008 83.25878906 C105.69458008 82.59878906 105.69458008 81.93878906 105.69458008 81.25878906 C106.68458008 81.25878906 107.67458008 81.25878906 108.69458008 81.25878906 C108.69458008 80.59878906 108.69458008 79.93878906 108.69458008 79.25878906 C111.00458008 79.25878906 113.31458008 79.25878906 115.69458008 79.25878906 C115.69458008 78.59878906 115.69458008 77.93878906 115.69458008 77.25878906 C121.96458008 77.25878906 128.23458008 77.25878906 134.69458008 77.25878906 C134.69458008 77.58878906 134.69458008 77.91878906 134.69458008 78.25878906 C137.66458008 78.75378906 137.66458008 78.75378906 140.69458008 79.25878906 C140.69458008 79.91878906 140.69458008 80.57878906 140.69458008 81.25878906 C142.01458008 81.25878906 143.33458008 81.25878906 144.69458008 81.25878906 C144.69458008 81.91878906 144.69458008 82.57878906 144.69458008 83.25878906 C146.34458008 83.58878906 147.99458008 83.91878906 149.69458008 84.25878906 C149.69458008 84.91878906 149.69458008 85.57878906 149.69458008 86.25878906 C150.35458008 86.25878906 151.01458008 86.25878906 151.69458008 86.25878906 C153.31958008 87.75878906 153.31958008 87.75878906 154.69458008 89.25878906 C154.69458008 87.60878906 154.69458008 85.95878906 154.69458008 84.25878906 C155.35458008 84.25878906 156.01458008 84.25878906 156.69458008 84.25878906 C156.69458008 83.26878906 156.69458008 82.27878906 156.69458008 81.25878906 C158.01458008 81.25878906 159.33458008 81.25878906 160.69458008 81.25878906 C160.69458008 80.59878906 160.69458008 79.93878906 160.69458008 79.25878906 C163.33458008 79.25878906 165.97458008 79.25878906 168.69458008 79.25878906 C168.69458008 71.99878906 168.69458008 64.73878906 168.69458008 57.25878906 C169.35458008 57.25878906 170.01458008 57.25878906 170.69458008 57.25878906 C170.69458008 56.59878906 170.69458008 55.93878906 170.69458008 55.25878906 C174.23592677 54.07834017 177.44903222 54.11260183 181.13208008 54.13378906 C182.45079102 54.13121094 183.76950195 54.12863281 185.12817383 54.12597656 C187.89696461 54.22908597 190.08535122 54.4179634 192.69458008 55.25878906 C193.02458008 56.57878906 193.35458008 57.89878906 193.69458008 59.25878906 C194.35458008 59.25878906 195.01458008 59.25878906 195.69458008 59.25878906 C195.69458008 65.85878906 195.69458008 72.45878906 195.69458008 79.25878906 C200.64458008 79.25878906 205.59458008 79.25878906 210.69458008 79.25878906 C210.69458008 79.91878906 210.69458008 80.57878906 210.69458008 81.25878906 C212.01458008 81.25878906 213.33458008 81.25878906 214.69458008 81.25878906 C214.69458008 81.91878906 214.69458008 82.57878906 214.69458008 83.25878906 C215.68458008 82.59878906 216.67458008 81.93878906 217.69458008 81.25878906 C217.69458008 80.59878906 217.69458008 79.93878906 217.69458008 79.25878906 C218.35458008 79.25878906 219.01458008 79.25878906 219.69458008 79.25878906 C219.69458008 78.26878906 219.69458008 77.27878906 219.69458008 76.25878906 C220.35458008 76.25878906 221.01458008 76.25878906 221.69458008 76.25878906 C221.69458008 74.93878906 221.69458008 73.61878906 221.69458008 72.25878906 C223.01245292 71.23850041 224.3466866 70.23907523 225.69458008 69.25878906 C226.4908183 67.16463102 226.4908183 67.16463102 226.69458008 65.25878906 C228.01458008 64.92878906 229.33458008 64.59878906 230.69458008 64.25878906 C230.73583008 63.66066406 230.77708008 63.06253906 230.81958008 62.44628906 C232.13358038 59.1612883 234.58155301 58.68559314 237.69458008 57.25878906 C238.02458008 56.59878906 238.35458008 55.93878906 238.69458008 55.25878906 C241.01614605 54.85149679 243.35145878 54.5144023 245.69458008 54.25878906 C245.69458008 53.59878906 245.69458008 52.93878906 245.69458008 52.25878906 C246.68458008 52.25878906 247.67458008 52.25878906 248.69458008 52.25878906 C248.69458008 51.59878906 248.69458008 50.93878906 248.69458008 50.25878906 C250.01458008 50.25878906 251.33458008 50.25878906 252.69458008 50.25878906 C252.69458008 49.59878906 252.69458008 48.93878906 252.69458008 48.25878906 C259.66472131 46.95188758 266.62339704 47.11182887 273.69458008 47.13378906 C274.93981445 47.12992188 276.18504883 47.12605469 277.46801758 47.12207031 C283.30772329 47.12829601 288.94708999 47.18113467 294.69458008 48.25878906 C294.69458008 48.91878906 294.69458008 49.57878906 294.69458008 50.25878906 C295.68458008 50.25878906 296.67458008 50.25878906 297.69458008 50.25878906 C297.69458008 50.91878906 297.69458008 51.57878906 297.69458008 52.25878906 C299.01458008 52.25878906 300.33458008 52.25878906 301.69458008 52.25878906 C301.69458008 52.91878906 301.69458008 53.57878906 301.69458008 54.25878906 C303.36520508 54.41347656 303.36520508 54.41347656 305.06958008 54.57128906 C306.26583008 54.79816406 307.46208008 55.02503906 308.69458008 55.25878906 C309.35458008 56.24878906 310.01458008 57.23878906 310.69458008 58.25878906 C311.54020508 58.56816406 312.38583008 58.87753906 313.25708008 59.19628906 C314.46364258 59.72222656 314.46364258 59.72222656 315.69458008 60.25878906 C316.50708008 62.38378906 316.50708008 62.38378906 316.69458008 64.25878906 C317.35458008 64.25878906 318.01458008 64.25878906 318.69458008 64.25878906 C318.69458008 65.24878906 318.69458008 66.23878906 318.69458008 67.25878906 C319.35458008 67.25878906 320.01458008 67.25878906 320.69458008 67.25878906 C322.99106657 69.82025476 323.69458008 70.73846478 323.69458008 74.25878906 C324.35458008 74.25878906 325.01458008 74.25878906 325.69458008 74.25878906 C325.69458008 74.91878906 325.69458008 75.57878906 325.69458008 76.25878906 C326.35458008 76.25878906 327.01458008 76.25878906 327.69458008 76.25878906 C328.02458008 78.89878906 328.35458008 81.53878906 328.69458008 84.25878906 C329.35458008 84.25878906 330.01458008 84.25878906 330.69458008 84.25878906 C330.69458008 85.90878906 330.69458008 87.55878906 330.69458008 89.25878906 C331.35458008 89.25878906 332.01458008 89.25878906 332.69458008 89.25878906 C332.67137695 88.63875 332.64817383 88.01871094 332.62426758 87.37988281 C332.45754649 79.1986409 333.48627373 71.33768407 334.69458008 63.25878906 C334.84024414 62.0509375 334.9859082 60.84308594 335.13598633 59.59863281 C335.64617394 56.5482104 336.34844191 54.32790289 337.69458008 51.57128906 C339.02962462 48.8079432 340.04359209 46.26282737 340.69458008 43.25878906 C341.35458008 43.25878906 342.01458008 43.25878906 342.69458008 43.25878906 C342.69458008 42.26878906 342.69458008 41.27878906 342.69458008 40.25878906 C343.35458008 40.25878906 344.01458008 40.25878906 344.69458008 40.25878906 C345.15864258 39.08316406 345.15864258 39.08316406 345.63208008 37.88378906 C346.69458008 35.25878906 346.69458008 35.25878906 347.69458008 33.25878906 C348.35458008 33.25878906 349.01458008 33.25878906 349.69458008 33.25878906 C349.96270508 32.61941406 350.23083008 31.98003906 350.50708008 31.32128906 C351.69458008 29.25878906 351.69458008 29.25878906 354.69458008 28.25878906 C354.69458008 27.59878906 354.69458008 26.93878906 354.69458008 26.25878906 C355.35458008 26.25878906 356.01458008 26.25878906 356.69458008 26.25878906 C356.69458008 25.59878906 356.69458008 24.93878906 356.69458008 24.25878906 C358.67458008 23.76378906 358.67458008 23.76378906 360.69458008 23.25878906 C360.69458008 22.59878906 360.69458008 21.93878906 360.69458008 21.25878906 C361.68458008 21.25878906 362.67458008 21.25878906 363.69458008 21.25878906 C363.69458008 20.59878906 363.69458008 19.93878906 363.69458008 19.25878906 C370.19458008 16.25878906 370.19458008 16.25878906 374.69458008 16.25878906 C374.69458008 15.59878906 374.69458008 14.93878906 374.69458008 14.25878906 C381.66472131 12.95188758 388.62339704 13.11182887 395.69458008 13.13378906 C396.93981445 13.12992188 398.18504883 13.12605469 399.46801758 13.12207031 C405.30772329 13.12829601 410.94708999 13.18113467 416.69458008 14.25878906 C416.69458008 14.91878906 416.69458008 15.57878906 416.69458008 16.25878906 C417.37520508 16.38253906 418.05583008 16.50628906 418.75708008 16.63378906 C422.16840121 17.35960207 425.40610067 18.07990022 428.69458008 19.25878906 C429.88208008 21.32128906 429.88208008 21.32128906 430.69458008 23.25878906 C432.74458879 24.06407796 432.74458879 24.06407796 434.69458008 24.25878906 C434.69458008 24.91878906 434.69458008 25.57878906 434.69458008 26.25878906 C435.68458008 26.25878906 436.67458008 26.25878906 437.69458008 26.25878906 C441.69458008 30.60164621 441.69458008 30.60164621 441.69458008 33.25878906 C442.35458008 33.25878906 443.01458008 33.25878906 443.69458008 33.25878906 C444.65379729 35.00830474 445.61191825 36.7584215 446.56958008 38.50878906 C447.10325195 39.48332031 447.63692383 40.45785156 448.18676758 41.46191406 C448.6843457 42.38488281 449.18192383 43.30785156 449.69458008 44.25878906 C450.08645508 44.96003906 450.47833008 45.66128906 450.88208008 46.38378906 C452.14714973 49.30318057 451.81503333 52.12700445 451.69458008 55.25878906 C452.35458008 55.25878906 453.01458008 55.25878906 453.69458008 55.25878906 C453.69458008 58.55878906 453.69458008 61.85878906 453.69458008 65.25878906 C443.13458008 65.25878906 432.57458008 65.25878906 421.69458008 65.25878906 C419.44458008 56.25878906 419.44458008 56.25878906 419.69458008 52.25878906 C419.03458008 52.25878906 418.37458008 52.25878906 417.69458008 52.25878906 C417.57083008 51.61941406 417.44708008 50.98003906 417.31958008 50.32128906 C417.11333008 49.64066406 416.90708008 48.96003906 416.69458008 48.25878906 C416.03458008 47.92878906 415.37458008 47.59878906 414.69458008 47.25878906 C414.69458008 46.59878906 414.69458008 45.93878906 414.69458008 45.25878906 C414.03458008 45.25878906 413.37458008 45.25878906 412.69458008 45.25878906 C412.69458008 44.59878906 412.69458008 43.93878906 412.69458008 43.25878906 C410.38458008 42.92878906 408.07458008 42.59878906 405.69458008 42.25878906 C405.69458008 41.59878906 405.69458008 40.93878906 405.69458008 40.25878906 C399.09458008 40.25878906 392.49458008 40.25878906 385.69458008 40.25878906 C385.69458008 40.91878906 385.69458008 41.57878906 385.69458008 42.25878906 C382.22958008 42.75378906 382.22958008 42.75378906 378.69458008 43.25878906 C378.69458008 43.91878906 378.69458008 44.57878906 378.69458008 45.25878906 C378.03458008 45.25878906 377.37458008 45.25878906 376.69458008 45.25878906 C376.69458008 45.91878906 376.69458008 46.57878906 376.69458008 47.25878906 C376.03458008 47.58878906 375.37458008 47.91878906 374.69458008 48.25878906 C374.04244716 50.28342161 374.04244716 50.28342161 373.69458008 52.25878906 C373.03458008 52.25878906 372.37458008 52.25878906 371.69458008 52.25878906 C371.69458008 53.24878906 371.69458008 54.23878906 371.69458008 55.25878906 C371.03458008 55.25878906 370.37458008 55.25878906 369.69458008 55.25878906 C369.36458008 59.21878906 369.03458008 63.17878906 368.69458008 67.25878906 C368.03458008 67.25878906 367.37458008 67.25878906 366.69458008 67.25878906 C366.69458008 81.11878906 366.69458008 94.97878906 366.69458008 109.25878906 C367.35458008 109.25878906 368.01458008 109.25878906 368.69458008 109.25878906 C369.02458008 113.54878906 369.35458008 117.83878906 369.69458008 122.25878906 C370.35458008 122.25878906 371.01458008 122.25878906 371.69458008 122.25878906 C371.69458008 123.24878906 371.69458008 124.23878906 371.69458008 125.25878906 C372.35458008 125.25878906 373.01458008 125.25878906 373.69458008 125.25878906 C374.12770508 126.21785156 374.12770508 126.21785156 374.56958008 127.19628906 C375.52281459 129.41084985 375.52281459 129.41084985 377.69458008 130.25878906 C377.69458008 130.91878906 377.69458008 131.57878906 377.69458008 132.25878906 C378.35458008 132.25878906 379.01458008 132.25878906 379.69458008 132.25878906 C379.69458008 132.91878906 379.69458008 133.57878906 379.69458008 134.25878906 C380.54922852 134.319375 381.40387695 134.37996094 382.28442383 134.44238281 C383.38915039 134.52617187 384.49387695 134.60996094 385.63208008 134.69628906 C386.73422852 134.7775 387.83637695 134.85871094 388.97192383 134.94238281 C391.69458008 135.25878906 391.69458008 135.25878906 392.69458008 136.25878906 C395.19458008 136.42545573 395.19458008 136.42545573 397.69458008 136.25878906 C398.02458008 135.92878906 398.35458008 135.59878906 398.69458008 135.25878906 C400.71052589 135.02451128 402.73305408 134.84542782 404.75708008 134.69628906 C405.86180664 134.6125 406.9665332 134.52871094 408.10473633 134.44238281 C408.95938477 134.38179687 409.8140332 134.32121094 410.69458008 134.25878906 C410.69458008 133.59878906 410.69458008 132.93878906 410.69458008 132.25878906 C414.15611854 129.25878906 414.15611854 129.25878906 416.69458008 129.25878906 C417.02458008 127.60878906 417.35458008 125.95878906 417.69458008 124.25878906 C418.35458008 124.25878906 419.01458008 124.25878906 419.69458008 124.25878906 C419.66364258 122.80472656 419.66364258 122.80472656 419.63208008 121.32128906 C419.69458008 118.25878906 419.69458008 118.25878906 420.69458008 117.25878906 C421.02458008 114.94878906 421.35458008 112.63878906 421.69458008 110.25878906 C432.25458008 110.25878906 442.81458008 110.25878906 453.69458008 110.25878906 C453.69458008 122.31761259 453.69458008 122.31761259 451.69458008 127.25878906 C451.33351911 128.91966951 450.98995835 130.58497887 450.69458008 132.25878906 C450.03458008 132.25878906 449.37458008 132.25878906 448.69458008 132.25878906 C448.69458008 133.24878906 448.69458008 134.23878906 448.69458008 135.25878906 C448.03458008 135.25878906 447.37458008 135.25878906 446.69458008 135.25878906 C446.36458008 137.23878906 446.03458008 139.21878906 445.69458008 141.25878906 C445.03458008 141.25878906 444.37458008 141.25878906 443.69458008 141.25878906 C443.35426758 142.34160156 443.35426758 142.34160156 443.00708008 143.44628906 C441.42178034 146.84335993 439.53534685 148.83374426 436.69458008 151.25878906 C435.70458008 151.25878906 434.71458008 151.25878906 433.69458008 151.25878906 C433.69458008 151.91878906 433.69458008 152.57878906 433.69458008 153.25878906 C430.78909126 155.30048391 429.29315962 156.25878906 425.69458008 156.25878906 C425.69458008 156.91878906 425.69458008 157.57878906 425.69458008 158.25878906 C420.76473683 160.2987242 417.11497583 161.66531874 411.69458008 161.25878906 C411.69458008 161.91878906 411.69458008 162.57878906 411.69458008 163.25878906 C400.55364218 164.08829761 389.82763352 164.32611719 378.69458008 163.25878906 C378.69458008 162.59878906 378.69458008 161.93878906 378.69458008 161.25878906 C377.86958008 161.32066406 377.04458008 161.38253906 376.19458008 161.44628906 C371.81264312 161.21154244 368.73962926 159.93260252 364.69458008 158.25878906 C364.69458008 157.59878906 364.69458008 156.93878906 364.69458008 156.25878906 C363.70458008 156.25878906 362.71458008 156.25878906 361.69458008 156.25878906 C361.69458008 155.59878906 361.69458008 154.93878906 361.69458008 154.25878906 C360.04458008 153.92878906 358.39458008 153.59878906 356.69458008 153.25878906 C356.69458008 152.59878906 356.69458008 151.93878906 356.69458008 151.25878906 C356.03458008 151.25878906 355.37458008 151.25878906 354.69458008 151.25878906 C352.06958008 148.88378906 352.06958008 148.88378906 349.69458008 146.25878906 C349.69458008 145.59878906 349.69458008 144.93878906 349.69458008 144.25878906 C349.03458008 144.25878906 348.37458008 144.25878906 347.69458008 144.25878906 C347.69458008 143.26878906 347.69458008 142.27878906 347.69458008 141.25878906 C347.03458008 140.92878906 346.37458008 140.59878906 345.69458008 140.25878906 C342.69458008 136.68186599 342.69458008 136.68186599 342.69458008 134.25878906 C342.03458008 134.25878906 341.37458008 134.25878906 340.69458008 134.25878906 C340.36458008 131.28878906 340.03458008 128.31878906 339.69458008 125.25878906 C339.03458008 125.25878906 338.37458008 125.25878906 337.69458008 125.25878906 C337.69458008 123.60878906 337.69458008 121.95878906 337.69458008 120.25878906 C337.03458008 120.25878906 336.37458008 120.25878906 335.69458008 120.25878906 C335.36458008 118.60878906 335.03458008 116.95878906 334.69458008 115.25878906 C334.03458008 115.25878906 333.37458008 115.25878906 332.69458008 115.25878906 C332.73583008 116.45503906 332.77708008 117.65128906 332.81958008 118.88378906 C332.83309716 122.68208859 332.11467761 125.70854524 330.69458008 129.25878906 C330.03458008 129.25878906 329.37458008 129.25878906 328.69458008 129.25878906 C328.36458008 131.89878906 328.03458008 134.53878906 327.69458008 137.25878906 C327.03458008 137.25878906 326.37458008 137.25878906 325.69458008 137.25878906 C325.69458008 137.91878906 325.69458008 138.57878906 325.69458008 139.25878906 C325.03458008 139.25878906 324.37458008 139.25878906 323.69458008 139.25878906 C323.69458008 140.24878906 323.69458008 141.23878906 323.69458008 142.25878906 C323.03458008 142.25878906 322.37458008 142.25878906 321.69458008 142.25878906 C321.36458008 143.57878906 321.03458008 144.89878906 320.69458008 146.25878906 C320.07583008 146.34128906 319.45708008 146.42378906 318.81958008 146.50878906 C316.54103573 147.05157205 316.54103573 147.05157205 315.63208008 149.13378906 C315.16801758 150.18566406 315.16801758 150.18566406 314.69458008 151.25878906 C313.19458008 153.00878906 313.19458008 153.00878906 311.69458008 154.25878906 C311.03458008 154.25878906 310.37458008 154.25878906 309.69458008 154.25878906 C309.36458008 155.57878906 309.03458008 156.89878906 308.69458008 158.25878906 C306.38458008 158.58878906 304.07458008 158.91878906 301.69458008 159.25878906 C301.69458008 159.91878906 301.69458008 160.57878906 301.69458008 161.25878906 C300.37458008 161.25878906 299.05458008 161.25878906 297.69458008 161.25878906 C297.69458008 161.91878906 297.69458008 162.57878906 297.69458008 163.25878906 C294.39458008 163.58878906 291.09458008 163.91878906 287.69458008 164.25878906 C287.69458008 164.91878906 287.69458008 165.57878906 287.69458008 166.25878906 C283.13213371 166.31692079 278.56978284 166.35243028 274.00708008 166.38378906 C272.71350586 166.40054688 271.41993164 166.41730469 270.0871582 166.43457031 C268.83999023 166.44101563 267.59282227 166.44746094 266.30786133 166.45410156 C264.58756714 166.46981201 264.58756714 166.46981201 262.83251953 166.48583984 C259.67280014 166.25721314 257.56178835 165.54239502 254.69458008 164.25878906 C252.70214758 163.8828584 250.70271267 163.53899361 248.69458008 163.25878906 C248.69458008 162.59878906 248.69458008 161.93878906 248.69458008 161.25878906 C247.70458008 161.25878906 246.71458008 161.25878906 245.69458008 161.25878906 C245.69458008 160.59878906 245.69458008 159.93878906 245.69458008 159.25878906 C243.38458008 158.92878906 241.07458008 158.59878906 238.69458008 158.25878906 C238.69458008 157.59878906 238.69458008 156.93878906 238.69458008 156.25878906 C238.03458008 156.25878906 237.37458008 156.25878906 236.69458008 156.25878906 C235.06958008 154.88378906 235.06958008 154.88378906 233.69458008 153.25878906 C233.69458008 152.59878906 233.69458008 151.93878906 233.69458008 151.25878906 C233.03458008 151.25878906 232.37458008 151.25878906 231.69458008 151.25878906 C230.00317383 149.64941406 230.00317383 149.64941406 228.13208008 147.50878906 C227.51204102 146.81269531 226.89200195 146.11660156 226.25317383 145.39941406 C224.70926914 143.27896351 224.11561157 141.81958333 223.69458008 139.25878906 C223.03458008 139.25878906 222.37458008 139.25878906 221.69458008 139.25878906 C221.69458008 138.59878906 221.69458008 137.93878906 221.69458008 137.25878906 C221.03458008 137.25878906 220.37458008 137.25878906 219.69458008 137.25878906 C219.69458008 136.26878906 219.69458008 135.27878906 219.69458008 134.25878906 C219.03458008 134.25878906 218.37458008 134.25878906 217.69458008 134.25878906 C218.02458008 132.93878906 218.35458008 131.61878906 218.69458008 130.25878906 C218.03458008 130.25878906 217.37458008 130.25878906 216.69458008 130.25878906 C215.2427353 125.72177413 214.45948812 122.0781743 214.69458008 117.25878906 C214.03458008 117.25878906 213.37458008 117.25878906 212.69458008 117.25878906 C212.69458008 113.62878906 212.69458008 109.99878906 212.69458008 106.25878906 C211.70458008 106.25878906 210.71458008 106.25878906 209.69458008 106.25878906 C209.69458008 106.91878906 209.69458008 107.57878906 209.69458008 108.25878906 C206.39458008 108.25878906 203.09458008 108.25878906 199.69458008 108.25878906 C199.69458008 107.59878906 199.69458008 106.93878906 199.69458008 106.25878906 C198.37458008 106.25878906 197.05458008 106.25878906 195.69458008 106.25878906 C195.69458008 113.84878906 195.69458008 121.43878906 195.69458008 129.25878906 C200.31458008 129.58878906 204.93458008 129.91878906 209.69458008 130.25878906 C210.02458008 131.57878906 210.35458008 132.89878906 210.69458008 134.25878906 C211.35458008 134.25878906 212.01458008 134.25878906 212.69458008 134.25878906 C212.78168297 137.36277884 212.83500316 140.46645454 212.88208008 143.57128906 C212.9072168 144.45236328 212.93235352 145.3334375 212.95825195 146.24121094 C212.97275391 147.51254883 212.97275391 147.51254883 212.98754883 148.80957031 C213.00325928 149.58985596 213.01896973 150.3701416 213.03515625 151.17407227 C212.69458008 153.25878906 212.69458008 153.25878906 211.52270508 155.01855469 C208.98453585 156.74049642 207.20148477 156.6001685 204.15161133 156.55175781 C203.0784668 156.54208984 202.00532227 156.53242188 200.8996582 156.52246094 C199.78010742 156.49732422 198.66055664 156.4721875 197.50708008 156.44628906 C196.37592773 156.43275391 195.24477539 156.41921875 194.0793457 156.40527344 C191.2839469 156.36988864 188.48950115 156.32051855 185.69458008 156.25878906 C185.69458008 155.59878906 185.69458008 154.93878906 185.69458008 154.25878906 C183.05458008 153.92878906 180.41458008 153.59878906 177.69458008 153.25878906 C177.69458008 152.59878906 177.69458008 151.93878906 177.69458008 151.25878906 C177.03458008 151.25878906 176.37458008 151.25878906 175.69458008 151.25878906 C175.69458008 150.59878906 175.69458008 149.93878906 175.69458008 149.25878906 C175.03458008 149.25878906 174.37458008 149.25878906 173.69458008 149.25878906 C173.69458008 148.59878906 173.69458008 147.93878906 173.69458008 147.25878906 C173.03458008 147.25878906 172.37458008 147.25878906 171.69458008 147.25878906 C171.36458008 145.27878906 171.03458008 143.29878906 170.69458008 141.25878906 C170.03458008 141.25878906 169.37458008 141.25878906 168.69458008 141.25878906 C168.69458008 129.70878906 168.69458008 118.15878906 168.69458008 106.25878906 C168.03458008 106.25878906 167.37458008 106.25878906 166.69458008 106.25878906 C166.69458008 106.91878906 166.69458008 107.57878906 166.69458008 108.25878906 C165.04458008 108.25878906 163.39458008 108.25878906 161.69458008 108.25878906 C161.69458008 107.59878906 161.69458008 106.93878906 161.69458008 106.25878906 C161.03458008 106.25878906 160.37458008 106.25878906 159.69458008 106.25878906 C159.69458008 110.87878906 159.69458008 115.49878906 159.69458008 120.25878906 C159.03458008 120.25878906 158.37458008 120.25878906 157.69458008 120.25878906 C157.42645508 120.89816406 157.15833008 121.53753906 156.88208008 122.19628906 C155.69458008 124.25878906 155.69458008 124.25878906 152.69458008 125.25878906 C152.69458008 125.91878906 152.69458008 126.57878906 152.69458008 127.25878906 C139.82458008 127.25878906 126.95458008 127.25878906 113.69458008 127.25878906 C113.69458008 127.91878906 113.69458008 128.57878906 113.69458008 129.25878906 C115.34458008 129.58878906 116.99458008 129.91878906 118.69458008 130.25878906 C118.69458008 130.91878906 118.69458008 131.57878906 118.69458008 132.25878906 C120.01458008 132.25878906 121.33458008 132.25878906 122.69458008 132.25878906 C122.69458008 132.91878906 122.69458008 133.57878906 122.69458008 134.25878906 C126.65458008 134.25878906 130.61458008 134.25878906 134.69458008 134.25878906 C134.69458008 133.59878906 134.69458008 132.93878906 134.69458008 132.25878906 C136.34458008 132.25878906 137.99458008 132.25878906 139.69458008 132.25878906 C139.69458008 131.59878906 139.69458008 130.93878906 139.69458008 130.25878906 C143.65458008 130.25878906 147.61458008 130.25878906 151.69458008 130.25878906 C152.02458008 131.57878906 152.35458008 132.89878906 152.69458008 134.25878906 C153.35458008 134.25878906 154.01458008 134.25878906 154.69458008 134.25878906 C154.69458008 135.24878906 154.69458008 136.23878906 154.69458008 137.25878906 C155.35458008 137.25878906 156.01458008 137.25878906 156.69458008 137.25878906 C156.69458008 141.87878906 156.69458008 146.49878906 156.69458008 151.25878906 C156.03458008 151.25878906 155.37458008 151.25878906 154.69458008 151.25878906 C154.69458008 151.91878906 154.69458008 152.57878906 154.69458008 153.25878906 C153.04458008 153.58878906 151.39458008 153.91878906 149.69458008 154.25878906 C149.69458008 154.91878906 149.69458008 155.57878906 149.69458008 156.25878906 C148.04458008 156.25878906 146.39458008 156.25878906 144.69458008 156.25878906 C144.69458008 156.91878906 144.69458008 157.57878906 144.69458008 158.25878906 C133.24464989 159.39566156 122.12847277 159.67537754 110.69458008 158.25878906 C110.69458008 157.59878906 110.69458008 156.93878906 110.69458008 156.25878906 C109.04458008 156.25878906 107.39458008 156.25878906 105.69458008 156.25878906 C105.69458008 155.59878906 105.69458008 154.93878906 105.69458008 154.25878906 C104.04458008 153.92878906 102.39458008 153.59878906 100.69458008 153.25878906 C100.69458008 152.59878906 100.69458008 151.93878906 100.69458008 151.25878906 C99.37458008 151.25878906 98.05458008 151.25878906 96.69458008 151.25878906 C96.36458008 149.93878906 96.03458008 148.61878906 95.69458008 147.25878906 C94.37458008 146.92878906 93.05458008 146.59878906 91.69458008 146.25878906 C91.57083008 145.61941406 91.44708008 144.98003906 91.31958008 144.32128906 C91.11333008 143.64066406 90.90708008 142.96003906 90.69458008 142.25878906 C90.03458008 141.92878906 89.37458008 141.59878906 88.69458008 141.25878906 C88.69458008 139.93878906 88.69458008 138.61878906 88.69458008 137.25878906 C88.03458008 137.25878906 87.37458008 137.25878906 86.69458008 137.25878906 C86.69458008 135.60878906 86.69458008 133.95878906 86.69458008 132.25878906 C86.03458008 132.25878906 85.37458008 132.25878906 84.69458008 132.25878906 C82.90987169 122.6659815 83.38936317 112.88476378 84.69458008 103.25878906 C84.03458008 103.25878906 83.37458008 103.25878906 82.69458008 103.25878906 C82.19958008 104.74378906 82.19958008 104.74378906 81.69458008 106.25878906 C80.37458008 106.25878906 79.05458008 106.25878906 77.69458008 106.25878906 C77.69458008 106.91878906 77.69458008 107.57878906 77.69458008 108.25878906 C77.03458008 108.25878906 76.37458008 108.25878906 75.69458008 108.25878906 C75.69458008 108.91878906 75.69458008 109.57878906 75.69458008 110.25878906 C74.04458008 110.25878906 72.39458008 110.25878906 70.69458008 110.25878906 C70.69458008 110.91878906 70.69458008 111.57878906 70.69458008 112.25878906 C59.14458008 112.25878906 47.59458008 112.25878906 35.69458008 112.25878906 C35.69458008 126.11878906 35.69458008 139.97878906 35.69458008 154.25878906 C35.03458008 154.25878906 34.37458008 154.25878906 33.69458008 154.25878906 C33.69458008 155.57878906 33.69458008 156.89878906 33.69458008 158.25878906 C32.37458008 158.58878906 31.05458008 158.91878906 29.69458008 159.25878906 C29.36458008 160.57878906 29.03458008 161.89878906 28.69458008 163.25878906 C24.78477139 164.53543542 20.8528547 164.4028354 16.78833008 164.39160156 C15.64575745 164.39303665 15.64575745 164.39303665 14.48010254 164.39450073 C12.87304603 164.39517984 11.26598675 164.39334435 9.65893555 164.38916016 C7.20330629 164.38380808 4.74785992 164.38911424 2.29223633 164.39550781 C0.72843384 164.39484698 -0.83536853 164.39356572 -2.39916992 164.39160156 C-3.4977533 164.39463791 -3.4977533 164.39463791 -4.61853027 164.3977356 C-7.98755503 164.38228905 -11.08478165 164.31040474 -14.30541992 163.25878906 C-14.63541992 161.93878906 -14.96541992 160.61878906 -15.30541992 159.25878906 C-16.62541992 158.92878906 -17.94541992 158.59878906 -19.30541992 158.25878906 C-20.15639931 154.5703733 -20.43100564 151.16490309 -20.43240356 147.38294983 C-20.43522339 146.2067659 -20.43804321 145.03058197 -20.44094849 143.8187561 C-20.43892426 142.53705536 -20.43690002 141.25535461 -20.43481445 139.93481445 C-20.43617024 138.56451877 -20.43795117 137.19422346 -20.44012451 135.82392883 C-20.44467816 132.10905539 -20.44291767 128.39420976 -20.43974543 124.67933583 C-20.43721064 120.78772358 -20.43956253 116.89611369 -20.44113159 113.00450134 C-20.44295023 106.46857273 -20.4405552 99.93265541 -20.43579102 93.39672852 C-20.43035126 85.8469515 -20.4321102 78.2972015 -20.43761742 70.74742514 C-20.44215996 64.25980844 -20.44279344 57.77219986 -20.44017875 51.28458208 C-20.43862197 47.41230765 -20.43840577 43.5400459 -20.44171524 39.66777229 C-20.44461043 36.02589216 -20.44258799 32.38404673 -20.43682098 28.74217033 C-20.43487449 26.77289757 -20.43783343 24.80362185 -20.44094849 22.83435059 C-20.43671875 21.06584496 -20.43671875 21.06584496 -20.43240356 19.26161194 C-20.43202654 18.24122865 -20.43164951 17.22084536 -20.43126106 16.16954136 C-20.29985275 13.13001821 -19.86553909 10.24664313 -19.30541992 7.25878906 C-17.98541992 6.92878906 -16.66541992 6.59878906 -15.30541992 6.25878906 C-14.97541992 4.93878906 -14.64541992 3.61878906 -14.30541992 2.25878906 C-9.37500081 0.66496143 -5.2323208 0.0066867 0 0 Z M36.69458008 43.25878906 C35.50650015 45.63494893 35.56543486 47.10996327 35.56176758 49.75878906 C35.56047852 50.64566406 35.55918945 51.53253906 35.55786133 52.44628906 C35.56172852 53.37441406 35.5655957 54.30253906 35.56958008 55.25878906 C35.56571289 56.18691406 35.5618457 57.11503906 35.55786133 58.07128906 C35.55915039 58.95816406 35.56043945 59.84503906 35.56176758 60.75878906 C35.56289551 61.57347656 35.56402344 62.38816406 35.56518555 63.22753906 C35.56656505 65.32729858 35.56656505 65.32729858 36.69458008 67.25878906 C42.00468303 67.76554493 42.00468303 67.76554493 46.69458008 65.88378906 C47.86927922 64.29290999 47.86927922 64.29290999 47.69458008 62.25878906 C48.35458008 62.25878906 49.01458008 62.25878906 49.69458008 62.25878906 C50.92149075 59.80496772 50.89633939 58.05894803 50.94458008 55.32128906 C50.97036133 54.44601563 50.99614258 53.57074219 51.02270508 52.66894531 C50.88958666 50.20289906 50.88958666 50.20289906 49.30395508 48.44238281 C47.75900541 47.06130069 47.75900541 47.06130069 45.69458008 47.25878906 C45.03458008 45.93878906 44.37458008 44.61878906 43.69458008 43.25878906 C41.38458008 43.25878906 39.07458008 43.25878906 36.69458008 43.25878906 Z M215.69458008 86.25878906 C216.69458008 88.25878906 216.69458008 88.25878906 216.69458008 88.25878906 Z M332.69458008 91.25878906 C332.69458008 93.56878906 332.69458008 95.87878906 332.69458008 98.25878906 C333.02458008 98.25878906 333.35458008 98.25878906 333.69458008 98.25878906 C333.69458008 95.94878906 333.69458008 93.63878906 333.69458008 91.25878906 C333.36458008 91.25878906 333.03458008 91.25878906 332.69458008 91.25878906 Z M87.69458008 98.25878906 C88.69458008 100.25878906 88.69458008 100.25878906 88.69458008 100.25878906 Z M84.69458008 101.25878906 C84.69458008 101.91878906 84.69458008 102.57878906 84.69458008 103.25878906 C85.35458008 103.25878906 86.01458008 103.25878906 86.69458008 103.25878906 C86.69458008 102.59878906 86.69458008 101.93878906 86.69458008 101.25878906 C86.03458008 101.25878906 85.37458008 101.25878906 84.69458008 101.25878906 Z M122.69458008 103.25878906 C122.69458008 103.91878906 122.69458008 104.57878906 122.69458008 105.25878906 C121.51895508 105.38253906 121.51895508 105.38253906 120.31958008 105.50878906 C117.54708904 105.98685246 117.54708904 105.98685246 116.38208008 108.32128906 C116.04176758 109.28035156 116.04176758 109.28035156 115.69458008 110.25878906 C115.03458008 110.25878906 114.37458008 110.25878906 113.69458008 110.25878906 C113.69458008 110.91878906 113.69458008 111.57878906 113.69458008 112.25878906 C116.48650212 112.31259484 119.27739418 112.35236575 122.06958008 112.38378906 C122.86364258 112.40054688 123.65770508 112.41730469 124.47583008 112.43457031 C126.54950023 112.45214379 128.62341249 112.36214074 130.69458008 112.25878906 C131.35458008 111.59878906 132.01458008 110.93878906 132.69458008 110.25878906 C132.37416611 107.65598338 132.37416611 107.65598338 131.69458008 105.25878906 C130.37458008 105.25878906 129.05458008 105.25878906 127.69458008 105.25878906 C127.69458008 104.59878906 127.69458008 103.93878906 127.69458008 103.25878906 C126.04458008 103.25878906 124.39458008 103.25878906 122.69458008 103.25878906 Z M333.69458008 103.25878906 C334.69458008 105.25878906 334.69458008 105.25878906 334.69458008 105.25878906 Z " fill="#FEBD2E" transform="translate(100.305419921875,7.7412109375)"/>
<path d="M0 0 C1.24523437 -0.00386719 2.49046875 -0.00773437 3.7734375 -0.01171875 C9.61314321 -0.00549305 15.25250991 0.04734561 21 1.125 C21 1.785 21 2.445 21 3.125 C21.680625 3.24875 22.36125 3.3725 23.0625 3.5 C26.47382113 4.22581301 29.7115206 4.94611116 33 6.125 C34.1875 8.1875 34.1875 8.1875 35 10.125 C37.05000871 10.93028889 37.05000871 10.93028889 39 11.125 C39 11.785 39 12.445 39 13.125 C39.99 13.125 40.98 13.125 42 13.125 C46 17.46785714 46 17.46785714 46 20.125 C46.66 20.125 47.32 20.125 48 20.125 C48.95921722 21.87451568 49.91733817 23.62463244 50.875 25.375 C51.40867187 26.34953125 51.94234375 27.3240625 52.4921875 28.328125 C52.98976563 29.25109375 53.48734375 30.1740625 54 31.125 C54.5878125 32.176875 54.5878125 32.176875 55.1875 33.25 C56.45256965 36.16939151 56.12045325 38.99321538 56 42.125 C56.66 42.125 57.32 42.125 58 42.125 C58 45.425 58 48.725 58 52.125 C47.44 52.125 36.88 52.125 26 52.125 C23.75 43.125 23.75 43.125 24 39.125 C23.34 39.125 22.68 39.125 22 39.125 C21.87625 38.485625 21.7525 37.84625 21.625 37.1875 C21.315625 36.1665625 21.315625 36.1665625 21 35.125 C20.34 34.795 19.68 34.465 19 34.125 C19 33.465 19 32.805 19 32.125 C18.34 32.125 17.68 32.125 17 32.125 C17 31.465 17 30.805 17 30.125 C14.69 29.795 12.38 29.465 10 29.125 C10 28.465 10 27.805 10 27.125 C3.4 27.125 -3.2 27.125 -10 27.125 C-10 27.785 -10 28.445 -10 29.125 C-12.31 29.455 -14.62 29.785 -17 30.125 C-17 30.785 -17 31.445 -17 32.125 C-17.66 32.125 -18.32 32.125 -19 32.125 C-19 32.785 -19 33.445 -19 34.125 C-19.99 34.62 -19.99 34.62 -21 35.125 C-21.65213292 37.14963255 -21.65213292 37.14963255 -22 39.125 C-22.66 39.125 -23.32 39.125 -24 39.125 C-24 40.115 -24 41.105 -24 42.125 C-24.66 42.125 -25.32 42.125 -26 42.125 C-26.33 46.085 -26.66 50.045 -27 54.125 C-27.66 54.125 -28.32 54.125 -29 54.125 C-29 67.985 -29 81.845 -29 96.125 C-28.34 96.125 -27.68 96.125 -27 96.125 C-26.505 102.56 -26.505 102.56 -26 109.125 C-25.34 109.125 -24.68 109.125 -24 109.125 C-24 110.115 -24 111.105 -24 112.125 C-23.34 112.125 -22.68 112.125 -22 112.125 C-21.566875 113.0840625 -21.566875 113.0840625 -21.125 114.0625 C-20.17176549 116.27706079 -20.17176549 116.27706079 -18 117.125 C-18 117.785 -18 118.445 -18 119.125 C-17.34 119.125 -16.68 119.125 -16 119.125 C-16 119.785 -16 120.445 -16 121.125 C-15.14535156 121.18558594 -14.29070312 121.24617188 -13.41015625 121.30859375 C-11.75306641 121.43427734 -11.75306641 121.43427734 -10.0625 121.5625 C-8.40927734 121.68431641 -8.40927734 121.68431641 -6.72265625 121.80859375 C-4 122.125 -4 122.125 -3 123.125 C-0.5 123.29166667 -0.5 123.29166667 2 123.125 C2.33 122.795 2.66 122.465 3 122.125 C5.01594582 121.89072222 7.038474 121.71163876 9.0625 121.5625 C10.16722656 121.47871094 11.27195312 121.39492187 12.41015625 121.30859375 C13.26480469 121.24800781 14.11945313 121.18742187 15 121.125 C15 120.465 15 119.805 15 119.125 C18.46153846 116.125 18.46153846 116.125 21 116.125 C21.33 114.475 21.66 112.825 22 111.125 C22.66 111.125 23.32 111.125 24 111.125 C23.979375 110.155625 23.95875 109.18625 23.9375 108.1875 C24 105.125 24 105.125 25 104.125 C25.33 101.815 25.66 99.505 26 97.125 C36.56 97.125 47.12 97.125 58 97.125 C58 109.18382353 58 109.18382353 56 114.125 C55.63893903 115.78588045 55.29537827 117.45118981 55 119.125 C54.34 119.125 53.68 119.125 53 119.125 C53 120.115 53 121.105 53 122.125 C52.34 122.125 51.68 122.125 51 122.125 C50.67 124.105 50.34 126.085 50 128.125 C49.34 128.125 48.68 128.125 48 128.125 C47.773125 128.846875 47.54625 129.56875 47.3125 130.3125 C45.72720026 133.70957087 43.84076677 135.6999552 41 138.125 C40.01 138.125 39.02 138.125 38 138.125 C38 138.785 38 139.445 38 140.125 C35.09451118 142.16669485 33.59857954 143.125 30 143.125 C30 143.785 30 144.445 30 145.125 C25.07015675 147.16493514 21.42039575 148.53152968 16 148.125 C16 148.785 16 149.445 16 150.125 C4.8590621 150.95450855 -5.86694656 151.19232813 -17 150.125 C-17 149.465 -17 148.805 -17 148.125 C-17.825 148.186875 -18.65 148.24875 -19.5 148.3125 C-23.88193696 148.07775338 -26.95495082 146.79881346 -31 145.125 C-31 144.465 -31 143.805 -31 143.125 C-31.99 143.125 -32.98 143.125 -34 143.125 C-34 142.465 -34 141.805 -34 141.125 C-35.65 140.795 -37.3 140.465 -39 140.125 C-39 139.465 -39 138.805 -39 138.125 C-39.66 138.125 -40.32 138.125 -41 138.125 C-43.625 135.75 -43.625 135.75 -46 133.125 C-46 132.465 -46 131.805 -46 131.125 C-46.66 131.125 -47.32 131.125 -48 131.125 C-48 130.135 -48 129.145 -48 128.125 C-48.66 127.795 -49.32 127.465 -50 127.125 C-53 123.54807692 -53 123.54807692 -53 121.125 C-53.66 121.125 -54.32 121.125 -55 121.125 C-55.33 118.155 -55.66 115.185 -56 112.125 C-56.66 112.125 -57.32 112.125 -58 112.125 C-58 110.475 -58 108.825 -58 107.125 C-58.66 107.125 -59.32 107.125 -60 107.125 C-60.495 104.65 -60.495 104.65 -61 102.125 C-61.33 102.125 -61.66 102.125 -62 102.125 C-61.97679687 101.07699219 -61.95359375 100.02898437 -61.9296875 98.94921875 C-61.91092697 97.57031963 -61.89272707 96.1914128 -61.875 94.8125 C-61.85824219 94.12220703 -61.84148437 93.43191406 -61.82421875 92.72070312 C-61.78782206 88.95364604 -61.85621136 87.34068296 -64 84.125 C-64.03544675 81.15928889 -63.95354455 78.32523943 -63.75 75.375 C-63.6984375 74.52969727 -63.646875 73.68439453 -63.59375 72.81347656 C-63.08900642 65.19356923 -62.14507538 57.67534078 -61 50.125 C-60.855625 48.92746094 -60.71125 47.72992188 -60.5625 46.49609375 C-60.05093905 43.43028055 -59.35233202 41.20679755 -58 38.4375 C-56.66495546 35.67415414 -55.65098799 33.12903831 -55 30.125 C-54.34 30.125 -53.68 30.125 -53 30.125 C-53 29.135 -53 28.145 -53 27.125 C-52.34 27.125 -51.68 27.125 -51 27.125 C-50.690625 26.34125 -50.38125 25.5575 -50.0625 24.75 C-49 22.125 -49 22.125 -48 20.125 C-47.34 20.125 -46.68 20.125 -46 20.125 C-45.731875 19.485625 -45.46375 18.84625 -45.1875 18.1875 C-44 16.125 -44 16.125 -41 15.125 C-41 14.465 -41 13.805 -41 13.125 C-40.34 13.125 -39.68 13.125 -39 13.125 C-39 12.465 -39 11.805 -39 11.125 C-37.68 10.795 -36.36 10.465 -35 10.125 C-35 9.465 -35 8.805 -35 8.125 C-34.01 8.125 -33.02 8.125 -32 8.125 C-32 7.465 -32 6.805 -32 6.125 C-25.5 3.125 -25.5 3.125 -21 3.125 C-21 2.465 -21 1.805 -21 1.125 C-14.02985877 -0.18190148 -7.07118304 -0.0219602 0 0 Z " fill="#000000" transform="translate(496,20.875)"/>
<path d="M0 0 C7.92 0 15.84 0 24 0 C24 9.9 24 19.8 24 30 C24.33 29.67 24.66 29.34 25 29 C31.12073687 26.21784688 36.55580522 25.7042823 43.1875 25.6875 C44.34560181 25.67964478 44.34560181 25.67964478 45.52709961 25.67163086 C50.07031086 25.72694633 53.7197476 26.32008139 58 28 C59.32911682 28.34976758 60.66082739 28.69096017 62 29 C62 29.66 62 30.32 62 31 C62.99 31 63.98 31 65 31 C65 31.66 65 32.32 65 33 C65.99 33 66.98 33 68 33 C68 33.66 68 34.32 68 35 C68.556875 35.061875 69.11375 35.12375 69.6875 35.1875 C73.01529218 36.35672428 74.73133832 38.35322804 77 41 C77 41.99 77 42.98 77 44 C77.66 44 78.32 44 79 44 C82.45686506 51.92434904 83.58151616 58.64153705 83.375 67.25 C83.37371094 68.28640625 83.37242187 69.3228125 83.37109375 70.390625 C83.28348485 78.02233375 81.9862971 83.96087111 79 91 C78.34 91 77.68 91 77 91 C77 91.66 77 92.32 77 93 C76.34 93 75.68 93 75 93 C74.7525 93.804375 74.505 94.60875 74.25 95.4375 C73 98 73 98 70.875 98.8125 C69.946875 98.9053125 69.946875 98.9053125 69 99 C69 99.66 69 100.32 69 101 C68.34 101 67.68 101 67 101 C67 101.66 67 102.32 67 103 C65.28819923 103.73842386 63.57574473 104.47538423 61.859375 105.203125 C60.41720751 105.82119678 58.98711686 106.46748452 57.5625 107.125 C54.05716122 108.32194495 50.68386311 108.62536985 47 109 C47 109.33 47 109.66 47 110 C44.03 110 41.06 110 38 110 C38 109.67 38 109.34 38 109 C37.01 108.896875 36.02 108.79375 35 108.6875 C30.71702837 108.09191294 27.00003629 106.61404973 23 105 C23 104.34 23 103.68 23 103 C22.34 103 21.68 103 21 103 C21 102.34 21 101.68 21 101 C20.34 101 19.68 101 19 101 C19 102.65 19 104.3 19 106 C12.73 106 6.46 106 0 106 C0 71.02 0 36.04 0 0 Z " fill="#010000" transform="translate(670,56)"/>
<path d="M0 0 C7.59 0 15.18 0 23 0 C24 1 24 1 24.12025452 3.01844788 C24.1169236 4.3474839 24.1169236 4.3474839 24.11352539 5.70336914 C24.11344986 6.70433121 24.11337433 7.70529327 24.11329651 8.73658752 C24.10813522 9.8251152 24.10297394 10.91364288 24.09765625 12.03515625 C24.0962413 13.14354355 24.09482635 14.25193085 24.09336853 15.39390564 C24.08775033 18.95013069 24.07519475 22.50629383 24.0625 26.0625 C24.05748734 28.46679597 24.05292403 30.87109292 24.04882812 33.27539062 C24.03777499 39.18361504 24.02101917 45.0918031 24 51 C24.66 51 25.32 51 26 51 C26.33 52.65 26.66 54.3 27 56 C34.07926559 58.18813664 39.92266602 58.35911133 47 56 C50.23206151 49.41576497 50.46358736 42.15121273 50.51171875 34.9609375 C50.52966995 33.95406891 50.54762115 32.94720032 50.56611633 31.90982056 C50.6197813 28.73158814 50.65397353 25.55350204 50.6875 22.375 C50.72071179 20.20440691 50.75520495 18.03383302 50.79101562 15.86328125 C50.87786604 10.57550488 50.93830947 5.28836745 51 0 C58.59 0 66.18 0 74 0 C74 18.48 74 36.96 74 56 C73.34 56 72.68 56 72 56 C72 57.65 72 59.3 72 61 C71.34 61 70.68 61 70 61 C70 62.32 70 63.64 70 65 C69.34 65 68.68 65 68 65 C67.5978125 66.2065625 67.5978125 66.2065625 67.1875 67.4375 C66.795625 68.283125 66.40375 69.12875 66 70 C64.515 70.495 64.515 70.495 63 71 C63 71.66 63 72.32 63 73 C62.01 73 61.02 73 60 73 C60 73.66 60 74.32 60 75 C59.34 75 58.68 75 58 75 C58 75.66 58 76.32 58 77 C55.36 77.33 52.72 77.66 50 78 C50 78.66 50 79.32 50 80 C47.36 80.33 44.72 80.66 42 81 C42 81.33 42 81.66 42 82 C38.7 82 35.4 82 32 82 C32 81.67 32 81.34 32 81 C29.36 80.67 26.72 80.34 24 80 C24 79.34 24 78.68 24 78 C21.36 77.67 18.72 77.34 16 77 C16 76.34 16 75.68 16 75 C15.34 75 14.68 75 14 75 C14 74.34 14 73.68 14 73 C13.21625 72.773125 12.4325 72.54625 11.625 72.3125 C8.33125925 70.66562962 8.20486745 69.35641647 7 66 C6.01 65.67 5.02 65.34 4 65 C4 63.68 4 62.36 4 61 C3.34 61 2.68 61 2 61 C2 59.35 2 57.7 2 56 C1.34 56 0.68 56 0 56 C0 37.52 0 19.04 0 0 Z " fill="#000000" transform="translate(588,84)"/>
<path d="M0 0 C7.59 0 15.18 0 23 0 C23 34.98 23 69.96 23 106 C15.08 106 7.16 106 -1 106 C-1.02254844 92.32697144 -1.04091359 78.65395512 -1.05181217 64.98091221 C-1.05704164 58.63269424 -1.06414044 52.2844896 -1.07543945 45.9362793 C-1.08626606 39.81551418 -1.09227635 33.69476191 -1.09487724 27.57398796 C-1.0967319 25.23309057 -1.10035329 22.89219391 -1.10573006 20.55130196 C-1.11293748 17.28491798 -1.11399107 14.01858785 -1.11352539 10.75219727 C-1.11712067 9.773965 -1.12071594 8.79573273 -1.12442017 7.78785706 C-1.1230455 6.90299622 -1.12167084 6.01813538 -1.12025452 5.10646057 C-1.12117631 4.33307626 -1.1220981 3.55969194 -1.12304783 2.76287174 C-1 1 -1 1 0 0 Z " fill="#000000" transform="translate(557,56)"/>
<path d="M0 0 C19.85892308 -1.04765714 19.85892308 -1.04765714 28 5 C31.12775188 8.34345891 32.92442116 11.26168666 33.125 15.875 C32 18 32 18 29.4375 19.3125 C28.2309375 19.6528125 28.2309375 19.6528125 27 20 C27 20.66 27 21.32 27 22 C25.26451831 23.44526736 23.46024037 24.8087222 21.625 26.125 C20.62726563 26.84945312 19.62953125 27.57390625 18.6015625 28.3203125 C16 30 16 30 14 30 C11.5978396 34.8043208 11.38877771 39.73103895 11 45 C18.96871349 45.83337406 18.96871349 45.83337406 25.9375 42.5 C29.30057269 39.1207587 31.12542416 35.34901594 33 31 C33.66 31 34.32 31 35 31 C35.268125 30.401875 35.53625 29.80375 35.8125 29.1875 C37.81534905 25.49804123 40.14119048 23.59768254 44 22 C46.578125 21.8046875 46.578125 21.8046875 49.25 21.875 C50.14203125 21.89304687 51.0340625 21.91109375 51.953125 21.9296875 C52.96632813 21.96449219 52.96632813 21.96449219 54 22 C54 22.66 54 23.32 54 24 C54.99 24 55.98 24 57 24 C60.23403836 30.19857353 61.4386189 36.3534263 59.3203125 43.1953125 C58.62451252 44.83209911 57.8226926 46.42317252 57 48 C56.34 48 55.68 48 55 48 C54.62875 48.86625 54.62875 48.86625 54.25 49.75 C52.81700012 52.32939979 51.21575324 54.06121592 49 56 C48.34 56 47.68 56 47 56 C47 56.66 47 57.32 47 58 C45.35 58 43.7 58 42 58 C42 58.66 42 59.32 42 60 C32.92646798 60.96450931 26.6804245 58.8228548 19 54 C17.86939775 53.07300197 16.75908286 52.11963409 15.6875 51.125 C13.08954892 48.69097473 13.08954892 48.69097473 9.375 48.5625 C6.31030221 48.95977564 4.62291234 49.50119295 2 51 C1.01 51 0.02 51 -1 51 C-1 51.66 -1 52.32 -1 53 C-2.98 53 -4.96 53 -7 53 C-7 53.66 -7 54.32 -7 55 C-9.31 55 -11.62 55 -14 55 C-14 54.34 -14 53.68 -14 53 C-15.0725 52.9175 -16.145 52.835 -17.25 52.75 C-21.40436117 51.91912777 -22.49353796 51.31211055 -25 48 C-28 42.75 -28 42.75 -28 39 C-28.66 39 -29.32 39 -30 39 C-30 38.01 -30 37.02 -30 36 C-30.66 36 -31.32 36 -32 36 C-32.33 34.35 -32.66 32.7 -33 31 C-29.63271465 31.24942854 -28.83327958 32.18339246 -26.5 34.75 C-24.94630955 36.72656033 -23.44613954 38.73848061 -21.9375 40.75 C-19.29912235 43.81392243 -17.27856853 44.82647999 -13.265625 45.37109375 C-6.09330049 45.52903354 -1.55921731 44.64537337 4 40 C5.30364767 38.90258186 5.30364767 38.90258186 5.33203125 36.20703125 C4.91118768 32.14217748 3.79622162 31.24091568 0.6875 28.6875 C-0.11300781 28.01074219 -0.91351563 27.33398438 -1.73828125 26.63671875 C-3.9855492 24.83815712 -3.9855492 24.83815712 -7 24 C-7 23.34 -7 22.68 -7 22 C-7.61875 21.9175 -8.2375 21.835 -8.875 21.75 C-11 21 -11 21 -12.25 18.9375 C-12.4975 18.298125 -12.745 17.65875 -13 17 C-13.66 17 -14.32 17 -15 17 C-15.1807683 13.02309735 -15.16992408 10.37543745 -13 7 C-10.9765625 5.515625 -10.9765625 5.515625 -8.625 4.25 C-7.46871094 3.60804687 -7.46871094 3.60804687 -6.2890625 2.953125 C-4 2 -4 2 0 2 C0 1.34 0 0.68 0 0 Z " fill="#0B0702" transform="translate(363,93)"/>
<path d="M0 0 C2.3125 0.8125 2.3125 0.8125 4 2 C4.75 4.125 4.75 4.125 5 6 C5.433125 5.21625 5.86625 4.4325 6.3125 3.625 C8 1 8 1 11 -1 C14.34570822 -0.86059549 16.30963609 -0.55674509 18.9375 1.5625 C20.55541707 5.27419209 19.72388102 8.05155805 19 12 C19.66 12 20.32 12 21 12 C21 11.34 21 10.68 21 10 C23.97 10 26.94 10 30 10 C30 10.66 30 11.32 30 12 C30.66 12 31.32 12 32 12 C32.08131463 13.43655854 32.13933559 14.8744483 32.1875 16.3125 C32.23970703 17.51326172 32.23970703 17.51326172 32.29296875 18.73828125 C32 21 32 21 30.61328125 22.79296875 C29 24 29 24 27 24 C27 24.66 27 25.32 27 26 C23.71303767 26.79953138 22.28976808 27.09658936 19 26 C19 25.34 19 24.68 19 24 C18.34 24 17.68 24 17 24 C17 24.99 17 25.98 17 27 C17.66 27 18.32 27 19 27 C19.48218104 31.91824661 19.76231598 34.96240325 16.75 39.0625 C14 41 14 41 10 41 C10 40.34 10 39.68 10 39 C6.37 39 2.74 39 -1 39 C-1 39.66 -1 40.32 -1 41 C-3.56887084 40.65285529 -5.51043382 40.34177261 -7.65625 38.84375 C-9.60948958 36.16372361 -9.29296194 34.08182023 -9.1875 30.8125 C-9.16042969 29.72582031 -9.13335938 28.63914063 -9.10546875 27.51953125 C-9.07066406 26.68808594 -9.03585937 25.85664063 -9 25 C-9.66 25.33 -10.32 25.66 -11 26 C-13.8125 26.375 -13.8125 26.375 -17 26 C-19.8125 23.5625 -19.8125 23.5625 -22 21 C-22.33 20.67 -22.66 20.34 -23 20 C-23.37086093 14.1589404 -23.37086093 14.1589404 -23 12 C-19.3558226 9.5705484 -17.28758728 9.83820425 -13 10 C-13 10.66 -13 11.32 -13 12 C-11.68 12.33 -10.36 12.66 -9 13 C-9.20625 11.783125 -9.4125 10.56625 -9.625 9.3125 C-10.08526813 5.65628554 -9.88523583 3.27435696 -8 0 C-5.08585452 -1.45707274 -3.13079879 -0.68877573 0 0 Z " fill="#1A0C00" transform="translate(709,105)"/>
<path d="M0 0 C0.89203125 0.01804687 1.7840625 0.03609375 2.703125 0.0546875 C3.71632813 0.08949219 3.71632813 0.08949219 4.75 0.125 C4.75 0.785 4.75 1.445 4.75 2.125 C5.74 2.125 6.73 2.125 7.75 2.125 C10.98403836 8.32357353 12.1886189 14.4784263 10.0703125 21.3203125 C9.37451252 22.95709911 8.5726926 24.54817252 7.75 26.125 C7.09 26.125 6.43 26.125 5.75 26.125 C5.5025 26.7025 5.255 27.28 5 27.875 C3.56700012 30.45439979 1.96575324 32.18621592 -0.25 34.125 C-0.91 34.125 -1.57 34.125 -2.25 34.125 C-2.25 34.785 -2.25 35.445 -2.25 36.125 C-3.9 36.125 -5.55 36.125 -7.25 36.125 C-7.25 36.785 -7.25 37.445 -7.25 38.125 C-16.8441567 39.1448513 -24.51163235 36.72055715 -32.09375 30.6484375 C-32.5784375 30.20757812 -33.063125 29.76671875 -33.5625 29.3125 C-36.80794837 26.67085598 -39.13051795 26.37216892 -43.25 26.125 C-43.25 25.795 -43.25 25.465 -43.25 25.125 C-41.27 25.125 -39.29 25.125 -37.25 25.125 C-36.92 24.465 -36.59 23.805 -36.25 23.125 C-35.68152344 23.19460937 -35.11304688 23.26421875 -34.52734375 23.3359375 C-30.02590449 23.65156429 -27.03318546 23.51718179 -23.4375 20.625 C-19.96486718 17.24927786 -18.15413432 13.54259161 -16.25 9.125 C-15.59 9.125 -14.93 9.125 -14.25 9.125 C-13.981875 8.526875 -13.71375 7.92875 -13.4375 7.3125 C-10.39061363 1.69981459 -6.26414727 -0.16484598 0 0 Z " fill="#1A0A02" transform="translate(412.25,114.875)"/>
<path d="M0 0 C2.75630514 1.37541271 3.33488857 2.28648508 5 5 C5 6.32 5 7.64 5 9 C5.66 9 6.32 9 7 9 C7.48590022 16.1670282 7.48590022 16.1670282 5.25 20 C3 22 3 22 -1 22 C-1 21.34 -1 20.68 -1 20 C-4.63 20 -8.26 20 -12 20 C-12 20.66 -12 21.32 -12 22 C-16.56351039 21.51963048 -16.56351039 21.51963048 -18.3125 19.4375 C-20.15955767 12.88884098 -19.14672988 7.82727756 -16 2 C-11.12388978 -1.25074014 -5.6951146 -0.7056525 0 0 Z " fill="#F9B604" transform="translate(720,124)"/>
<path d="M0 0 C3.25717593 0.06432484 3.99973271 0.22948035 6.6875 2.3125 C8.74887569 6.52114203 9.16916426 9.78111801 8.1875 14.375 C5.38318728 20.49847973 0.81484196 23.75700242 -5.19921875 26.4765625 C-9.10717485 27.82010496 -12.6915782 28.17560056 -16.8125 28.375 C-15.01537108 24.19321924 -13.01947425 23.12790594 -8.8125 21.375 C-8.1525 21.375 -7.4925 21.375 -6.8125 21.375 C-6.8125 20.715 -6.8125 20.055 -6.8125 19.375 C-6.1525 19.375 -5.4925 19.375 -4.8125 19.375 C-4.8125 18.055 -4.8125 16.735 -4.8125 15.375 C-5.36679687 15.66375 -5.92109375 15.9525 -6.4921875 16.25 C-7.21664063 16.62125 -7.94109375 16.9925 -8.6875 17.375 C-9.40679687 17.74625 -10.12609375 18.1175 -10.8671875 18.5 C-12.8125 19.375 -12.8125 19.375 -14.8125 19.375 C-14.8125 20.035 -14.8125 20.695 -14.8125 21.375 C-16.1325 21.705 -17.4525 22.035 -18.8125 22.375 C-18.8125 21.385 -18.8125 20.395 -18.8125 19.375 C-18.1525 19.375 -17.4925 19.375 -16.8125 19.375 C-16.58691406 18.86324219 -16.36132812 18.35148437 -16.12890625 17.82421875 C-14.28888214 14.4007911 -12.02587574 11.33252206 -9.75 8.1875 C-9.29044922 7.54619141 -8.83089844 6.90488281 -8.35742188 6.24414062 C-4.16153469 0.40933128 -4.16153469 0.40933128 0 0 Z " fill="#F74D00" transform="translate(409.8125,119.625)"/>
<path d="M0 0 C1.41891872 0.0961203 2.83720294 0.21198495 4.25 0.375 C4.25 1.035 4.25 1.695 4.25 2.375 C4.91 2.375 5.57 2.375 6.25 2.375 C6.33131463 3.81155854 6.38933559 5.2494483 6.4375 6.6875 C6.47230469 7.48800781 6.50710938 8.28851563 6.54296875 9.11328125 C6.25 11.375 6.25 11.375 4.86328125 13.16796875 C3.25 14.375 3.25 14.375 1.25 14.375 C1.25 15.035 1.25 15.695 1.25 16.375 C-2.03696233 17.17453138 -3.46023192 17.47158936 -6.75 16.375 C-9.25304378 12.62043433 -9.20280074 10.82754066 -8.75 6.375 C-6.70442313 1.48340313 -5.20006951 0.00818909 0 0 Z " fill="#F2B304" transform="translate(734.75,114.625)"/>
<path d="M0 0 C0 0.66 0 1.32 0 2 C0.639375 2.28875 1.27875 2.5775 1.9375 2.875 C4 4 4 4 5 6 C5.28362182 9.26165094 5.28618906 11.39582309 3.875 14.375 C2 16 2 16 -0.875 16.5625 C-4.94713895 15.82951499 -6.35939725 14.09327751 -9 11 C-9.33 10.67 -9.66 10.34 -10 10 C-10.37086093 4.1589404 -10.37086093 4.1589404 -10 2 C-6.3558226 -0.4294516 -4.28758728 -0.16179575 0 0 Z " fill="#F1B004" transform="translate(696,115)"/>
<path d="M0 0 C2.43044773 2.26841789 2.96070783 3.42371483 3.1875 6.75 C3.125625 7.4925 3.06375 8.235 3 9 C2.34 9 1.68 9 1 9 C0.87625 9.61875 0.7525 10.2375 0.625 10.875 C0 13 0 13 -2 15 C-5.5 15.25 -5.5 15.25 -9 15 C-11.48076864 12.51923136 -11.35091557 11.55781791 -11.4375 8.125 C-11.35602361 4.37165437 -11.27328349 3.34562324 -8.875 0.3125 C-5.30790724 -1.31595539 -3.68785851 -1.28273339 0 0 Z " fill="#F3B204" transform="translate(726,105)"/>
<path d="M0 0 C2.14947982 1.62717631 2.91096668 2.47154416 3.36328125 5.15625 C3.34652344 5.9296875 3.32976563 6.703125 3.3125 7.5 C3.30863281 8.2734375 3.30476562 9.046875 3.30078125 9.84375 C3 12 3 12 1 15 C-4.86995516 15.64035874 -4.86995516 15.64035874 -7.875 13.9375 C-9.595575 10.9742875 -9.82420994 8.39860775 -10 5 C-9.1875 2.125 -9.1875 2.125 -8 0 C-5.06317146 -1.46841427 -3.13175678 -0.76696084 0 0 Z " fill="#F6B404" transform="translate(709,105)"/>
<path d="M0 0 C0.99 0.66 1.98 1.32 3 2 C4.9896995 2.39013716 6.99019869 2.73202649 9 3 C8.67 3.66 8.34 4.32 8 5 C11.3 5.33 14.6 5.66 18 6 C18 6.33 18 6.66 18 7 C16.87851562 7.03867188 16.87851562 7.03867188 15.734375 7.078125 C9.7002136 7.30853123 9.7002136 7.30853123 4.375 9.8125 C2.02505696 13.55104575 1.88017295 16.89314451 1.9375 21.25 C1.95103516 22.58804688 1.95103516 22.58804688 1.96484375 23.953125 C1.97644531 24.62859375 1.98804688 25.3040625 2 26 C1.34 25.67 0.68 25.34 0 25 C0 21.04 0 17.08 0 13 C-0.66 12.67 -1.32 12.34 -2 12 C-1.34 11.34 -0.68 10.68 0 10 C0.21676408 6.60402937 0.08073852 4.24221555 -1 1 C-0.67 0.67 -0.34 0.34 0 0 Z " fill="#351C00" transform="translate(700,117)"/>
<path d="M0 0 C0.103125 0.639375 0.20625 1.27875 0.3125 1.9375 C0.539375 2.618125 0.76625 3.29875 1 4 C1.99 4.33 2.98 4.66 4 5 C-0.75 8 -0.75 8 -3 8 C-3 8.66 -3 9.32 -3 10 C-4.32 10.33 -5.64 10.66 -7 11 C-7 10.01 -7 9.02 -7 8 C-6.34 8 -5.68 8 -5 8 C-4.731875 7.4225 -4.46375 6.845 -4.1875 6.25 C-2.98280141 3.9674132 -1.59201885 2.0262058 0 0 Z " fill="#DF3900" transform="translate(398,131)"/>
<path d="M0 0 C0.185625 0.9590625 0.185625 0.9590625 0.375 1.9375 C0.684375 2.9584375 0.684375 2.9584375 1 4 C1.66 4.33 2.32 4.66 3 5 C2.67 5.78375 2.34 6.5675 2 7.375 C0.72589829 11.99361869 0.83076064 16.24249356 1 21 C0.34 20.67 -0.32 20.34 -1 20 C-1 16.04 -1 12.08 -1 8 C-1.66 7.67 -2.32 7.34 -3 7 C-2.34 6.34 -1.68 5.68 -1 5 C-0.35232207 2.42938689 -0.35232207 2.42938689 0 0 Z " fill="#6E3900" transform="translate(701,122)"/>
<path d="M0 0 C0.66 1.32 1.32 2.64 2 4 C1.01 5.485 1.01 5.485 0 7 C-0.39013716 8.9896995 -0.73202649 10.99019869 -1 13 C-1.33 13 -1.66 13 -2 13 C-2 11.02 -2 9.04 -2 7 C-4.64 7 -7.28 7 -10 7 C-10 6.67 -10 6.34 -10 6 C-8.906875 5.938125 -7.81375 5.87625 -6.6875 5.8125 C-2.85667284 5.3867767 -2.85667284 5.3867767 -1.0625 2.4375 C-0.711875 1.633125 -0.36125 0.82875 0 0 Z " fill="#7B4400" transform="translate(727,114)"/>
<path d="M0 0 C2 2 2 2 2.125 4.625 C2.08375 5.40875 2.0425 6.1925 2 7 C1.34 7 0.68 7 0 7 C0 7.66 0 8.32 0 9 C-0.66 9 -1.32 9 -2 9 C-2 6.36 -2 3.72 -2 1 C-1.34 0.67 -0.68 0.34 0 0 Z " fill="#E5A104" transform="translate(727,107)"/>
<path d="M0 0 C0.66 0.33 1.32 0.66 2 1 C1.67 1.33 1.34 1.66 1 2 C1.99 2.66 2.98 3.32 4 4 C-0.455 4.495 -0.455 4.495 -5 5 C-3 1 -3 1 0 0 Z " fill="#D72C00" transform="translate(398,143)"/>
<path d="M0 0 C3.3 0 6.6 0 10 0 C9.67 0.99 9.34 1.98 9 3 C6.1875 3.1875 6.1875 3.1875 3 3 C2.01 2.01 1.02 1.02 0 0 Z " fill="#CA7F00" transform="translate(689,128)"/>
<path d="M0 0 C0.66 0 1.32 0 2 0 C3.85776765 3.13498292 4.20140476 5.37471432 4 9 C3.01 9 2.02 9 1 9 C0.67 6.03 0.34 3.06 0 0 Z " fill="#502500" transform="translate(711,107)"/>
<path d="M0 0 C0 3 0 3 -2 5.1875 C-2.66 5.785625 -3.32 6.38375 -4 7 C-4.66 6.67 -5.32 6.34 -6 6 C-4.75453595 2.26360784 -3.36595047 1.81243487 0 0 Z " fill="#331F0B" transform="translate(355,97)"/>
</svg>
