<svg xmlns="http://www.w3.org/2000/svg" xmlns:xlink="http://www.w3.org/1999/xlink" width="500" zoomAndPan="magnify" viewBox="0 0 375 374.999991" height="500" preserveAspectRatio="xMidYMid meet" version="1.0"><defs><g/><clipPath id="b3e976563e"><path d="M 241.210938 220.730469 L 265.960938 220.730469 L 265.960938 245.480469 L 241.210938 245.480469 Z M 241.210938 220.730469 " clip-rule="nonzero"/></clipPath><clipPath id="6ff5f0274f"><path d="M 241.210938 221 L 265.960938 221 L 265.960938 245 L 241.210938 245 Z M 241.210938 221 " clip-rule="nonzero"/></clipPath><clipPath id="4581038516"><path d="M 246 229 L 265.960938 229 L 265.960938 245 L 246 245 Z M 246 229 " clip-rule="nonzero"/></clipPath><clipPath id="e539272e3c"><path d="M 220.78125 131.132812 L 293.761719 131.132812 L 293.761719 204.113281 L 220.78125 204.113281 Z M 220.78125 131.132812 " clip-rule="nonzero"/></clipPath><clipPath id="e1efd7e6c4"><path d="M 257.273438 131.132812 C 237.117188 131.132812 220.78125 147.46875 220.78125 167.621094 C 220.78125 187.773438 237.117188 204.113281 257.273438 204.113281 C 277.425781 204.113281 293.761719 187.773438 293.761719 167.621094 C 293.761719 147.46875 277.425781 131.132812 257.273438 131.132812 Z M 257.273438 131.132812 " clip-rule="nonzero"/></clipPath><clipPath id="f9d84d2037"><path d="M 235.664062 171 L 285.914062 171 L 285.914062 192.25 L 235.664062 192.25 Z M 235.664062 171 " clip-rule="nonzero"/></clipPath></defs><g fill="#ffffff" fill-opacity="0.4"><g transform="translate(89.153797, 213.804292)"><g><path d="M 51.828125 -67.6875 C 52.210938 -63.5 51.675781 -59.300781 50.21875 -55.09375 C 48.757812 -50.882812 46.660156 -47.03125 43.921875 -43.53125 C 41.179688 -40.039062 37.96875 -37.085938 34.28125 -34.671875 C 30.601562 -32.253906 26.710938 -30.75 22.609375 -30.15625 C 22.648438 -28.738281 22.75 -26.960938 22.90625 -24.828125 C 23.070312 -22.691406 23.144531 -20.445312 23.125 -18.09375 C 23.101562 -15.738281 22.988281 -13.378906 22.78125 -11.015625 C 22.570312 -8.648438 22.140625 -6.492188 21.484375 -4.546875 C 20.828125 -2.609375 19.914062 -1 18.75 0.28125 C 17.582031 1.5625 16.066406 2.289062 14.203125 2.46875 C 12.023438 2.664062 10.226562 2.101562 8.8125 0.78125 C 7.40625 -0.539062 6.28125 -2.179688 5.4375 -4.140625 C 4.59375 -6.097656 3.953125 -8.171875 3.515625 -10.359375 C 3.078125 -12.546875 2.75 -14.414062 2.53125 -15.96875 C 2.175781 -18.207031 1.875 -20.410156 1.625 -22.578125 C 1.382812 -24.742188 1.164062 -26.953125 0.96875 -29.203125 C 0.875 -30.222656 0.695312 -32.109375 0.4375 -34.859375 C 0.1875 -37.617188 -0.078125 -40.765625 -0.359375 -44.296875 C -0.640625 -47.835938 -0.914062 -51.53125 -1.1875 -55.375 C -1.46875 -59.226562 -1.679688 -62.8125 -1.828125 -66.125 C -1.984375 -69.445312 -2.066406 -72.28125 -2.078125 -74.625 C -2.097656 -76.96875 -1.96875 -78.347656 -1.6875 -78.765625 C -1.632812 -78.859375 -1.425781 -79.054688 -1.0625 -79.359375 C -0.695312 -79.671875 -0.289062 -79.984375 0.15625 -80.296875 C 0.601562 -80.609375 1.007812 -80.894531 1.375 -81.15625 C 1.738281 -81.425781 1.992188 -81.609375 2.140625 -81.703125 C 5.523438 -84.035156 9.285156 -86.140625 13.421875 -88.015625 C 17.566406 -89.890625 21.734375 -91.019531 25.921875 -91.40625 C 29.484375 -91.726562 32.785156 -91.300781 35.828125 -90.125 C 38.867188 -88.957031 41.523438 -87.28125 43.796875 -85.09375 C 46.078125 -82.914062 47.90625 -80.304688 49.28125 -77.265625 C 50.664062 -74.222656 51.515625 -71.03125 51.828125 -67.6875 Z M 31.921875 -63.171875 C 31.773438 -64.722656 31.28125 -66.046875 30.4375 -67.140625 C 29.59375 -68.234375 28.3125 -68.703125 26.59375 -68.546875 C 25.125 -68.410156 23.675781 -67.984375 22.25 -67.265625 C 20.832031 -66.554688 19.53125 -65.832031 18.34375 -65.09375 C 18.820312 -62.394531 19.273438 -59.773438 19.703125 -57.234375 C 20.128906 -54.691406 20.390625 -52.050781 20.484375 -49.3125 C 21.679688 -50.050781 22.976562 -50.894531 24.375 -51.84375 C 25.78125 -52.789062 27.054688 -53.828125 28.203125 -54.953125 C 29.347656 -56.085938 30.289062 -57.332031 31.03125 -58.6875 C 31.769531 -60.050781 32.066406 -61.546875 31.921875 -63.171875 Z M 31.921875 -63.171875 "/></g></g></g><g fill="#ffffff" fill-opacity="0.4"><g transform="translate(139.195639, 209.217691)"><g><path d="M 50.390625 -25.515625 C 50.640625 -22.878906 50.039062 -20.222656 48.59375 -17.546875 C 47.15625 -14.867188 45.265625 -12.425781 42.921875 -10.21875 C 40.585938 -8.007812 38.039062 -6.171875 35.28125 -4.703125 C 32.519531 -3.234375 29.9375 -2.390625 27.53125 -2.171875 C 23.40625 -1.796875 19.640625 -2.484375 16.234375 -4.234375 C 12.828125 -5.992188 9.890625 -8.367188 7.421875 -11.359375 C 4.953125 -14.347656 2.976562 -17.710938 1.5 -21.453125 C 0.0195312 -25.191406 -0.882812 -28.882812 -1.21875 -32.53125 C -1.570312 -36.414062 -1.40625 -40.617188 -0.71875 -45.140625 C -0.0390625 -49.671875 1.226562 -53.898438 3.09375 -57.828125 C 4.96875 -61.753906 7.476562 -65.113281 10.625 -67.90625 C 13.78125 -70.707031 17.6875 -72.320312 22.34375 -72.75 C 24.976562 -72.988281 27.535156 -72.769531 30.015625 -72.09375 C 32.503906 -71.425781 34.71875 -70.359375 36.65625 -68.890625 C 38.601562 -67.429688 40.222656 -65.625 41.515625 -63.46875 C 42.804688 -61.3125 43.578125 -58.835938 43.828125 -56.046875 C 44.160156 -52.398438 43.695312 -48.910156 42.4375 -45.578125 C 41.1875 -42.253906 39.382812 -39.304688 37.03125 -36.734375 C 34.6875 -34.171875 31.910156 -32.019531 28.703125 -30.28125 C 25.492188 -28.539062 22.144531 -27.429688 18.65625 -26.953125 C 19.175781 -24.734375 20.238281 -23.1875 21.84375 -22.3125 C 23.457031 -21.445312 25.3125 -21.113281 27.40625 -21.3125 C 28.96875 -21.445312 30.445312 -21.96875 31.84375 -22.875 C 33.238281 -23.78125 34.59375 -24.785156 35.90625 -25.890625 C 37.21875 -26.992188 38.515625 -27.992188 39.796875 -28.890625 C 41.085938 -29.796875 42.4375 -30.3125 43.84375 -30.4375 C 45.382812 -30.582031 46.820312 -30.207031 48.15625 -29.3125 C 49.5 -28.425781 50.242188 -27.160156 50.390625 -25.515625 Z M 28.90625 -52.328125 C 28.8125 -53.335938 28.441406 -54.359375 27.796875 -55.390625 C 27.160156 -56.429688 26.257812 -56.894531 25.09375 -56.78125 C 23.394531 -56.625 22.003906 -56.046875 20.921875 -55.046875 C 19.835938 -54.054688 18.96875 -52.84375 18.3125 -51.40625 C 17.65625 -49.976562 17.1875 -48.472656 16.90625 -46.890625 C 16.625 -45.304688 16.503906 -43.84375 16.546875 -42.5 C 17.609375 -42.832031 18.878906 -43.265625 20.359375 -43.796875 C 21.835938 -44.328125 23.222656 -44.984375 24.515625 -45.765625 C 25.816406 -46.546875 26.90625 -47.484375 27.78125 -48.578125 C 28.65625 -49.679688 29.03125 -50.929688 28.90625 -52.328125 Z M 28.90625 -52.328125 "/></g></g></g><g fill="#ffffff" fill-opacity="0.4"><g transform="translate(185.859675, 204.940683)"><g><path d="M 31.03125 1.375 C 25.507812 1.882812 21.144531 1.5625 17.9375 0.40625 C 14.738281 -0.738281 12.265625 -2.5625 10.515625 -5.0625 C 8.765625 -7.570312 7.5625 -10.675781 6.90625 -14.375 C 6.25 -18.070312 5.710938 -22.210938 5.296875 -26.796875 C 4.960938 -30.453125 4.742188 -34.132812 4.640625 -37.84375 C 4.535156 -41.550781 4.523438 -45.519531 4.609375 -49.75 C 3.515625 -49.65625 2.65625 -49.554688 2.03125 -49.453125 C 1.414062 -49.359375 0.921875 -49.289062 0.546875 -49.25 C -1.941406 -49.019531 -4.144531 -49.363281 -6.0625 -50.28125 C -7.988281 -51.207031 -9.054688 -52.796875 -9.265625 -55.046875 C -9.390625 -56.453125 -8.976562 -57.742188 -8.03125 -58.921875 C -7.09375 -60.109375 -5.84375 -61.164062 -4.28125 -62.09375 C -2.71875 -63.019531 -1.007812 -63.800781 0.84375 -64.4375 C 2.707031 -65.082031 4.484375 -65.5625 6.171875 -65.875 C 5.972656 -68.039062 5.90625 -70.457031 5.96875 -73.125 C 6.039062 -75.789062 6.378906 -78.304688 6.984375 -80.671875 C 7.597656 -83.046875 8.53125 -85.066406 9.78125 -86.734375 C 11.039062 -88.410156 12.757812 -89.351562 14.9375 -89.5625 C 16.164062 -89.664062 17.300781 -89.394531 18.34375 -88.75 C 19.394531 -88.113281 20.28125 -87.257812 21 -86.1875 C 21.71875 -85.113281 22.296875 -83.894531 22.734375 -82.53125 C 23.171875 -81.164062 23.453125 -79.820312 23.578125 -78.5 C 23.722656 -76.945312 23.75 -75.34375 23.65625 -73.6875 C 23.570312 -72.039062 23.332031 -69.984375 22.9375 -67.515625 C 24.25 -67.796875 25.128906 -67.972656 25.578125 -68.046875 C 26.035156 -68.128906 26.460938 -68.191406 26.859375 -68.234375 C 28.179688 -68.347656 29.570312 -68.359375 31.03125 -68.265625 C 32.488281 -68.171875 33.84375 -67.90625 35.09375 -67.46875 C 36.351562 -67.03125 37.410156 -66.398438 38.265625 -65.578125 C 39.128906 -64.753906 39.617188 -63.71875 39.734375 -62.46875 C 39.859375 -61.070312 39.40625 -59.78125 38.375 -58.59375 C 37.351562 -57.414062 36.019531 -56.351562 34.375 -55.40625 C 32.738281 -54.46875 30.96875 -53.695312 29.0625 -53.09375 C 27.164062 -52.5 25.367188 -52.046875 23.671875 -51.734375 C 23.515625 -48.503906 23.457031 -45.539062 23.5 -42.84375 C 23.550781 -40.144531 23.585938 -37.425781 23.609375 -34.6875 C 23.566406 -33.351562 23.546875 -32 23.546875 -30.625 C 23.554688 -29.257812 23.628906 -27.878906 23.765625 -26.484375 C 23.847656 -25.472656 23.988281 -24.289062 24.1875 -22.9375 C 24.394531 -21.59375 24.789062 -20.320312 25.375 -19.125 C 25.957031 -17.925781 26.796875 -16.925781 27.890625 -16.125 C 28.984375 -15.320312 30.421875 -15 32.203125 -15.15625 C 33.296875 -15.257812 34.414062 -15.460938 35.5625 -15.765625 C 36.707031 -16.066406 37.859375 -16.273438 39.015625 -16.390625 C 41.035156 -16.566406 42.554688 -15.992188 43.578125 -14.671875 C 44.597656 -13.359375 45.207031 -11.617188 45.40625 -9.453125 C 45.5625 -7.816406 45.207031 -6.351562 44.34375 -5.0625 C 43.476562 -3.769531 42.34375 -2.6875 40.9375 -1.8125 C 39.539062 -0.9375 37.945312 -0.222656 36.15625 0.328125 C 34.363281 0.878906 32.65625 1.226562 31.03125 1.375 Z M 31.03125 1.375 "/></g></g></g><g fill="#3b1685" fill-opacity="1"><g transform="translate(85.832996, 211.499441)"><g><path d="M 51.828125 -67.6875 C 52.210938 -63.5 51.675781 -59.300781 50.21875 -55.09375 C 48.757812 -50.882812 46.660156 -47.03125 43.921875 -43.53125 C 41.179688 -40.039062 37.96875 -37.085938 34.28125 -34.671875 C 30.601562 -32.253906 26.710938 -30.75 22.609375 -30.15625 C 22.648438 -28.738281 22.75 -26.960938 22.90625 -24.828125 C 23.070312 -22.691406 23.144531 -20.445312 23.125 -18.09375 C 23.101562 -15.738281 22.988281 -13.378906 22.78125 -11.015625 C 22.570312 -8.648438 22.140625 -6.492188 21.484375 -4.546875 C 20.828125 -2.609375 19.914062 -1 18.75 0.28125 C 17.582031 1.5625 16.066406 2.289062 14.203125 2.46875 C 12.023438 2.664062 10.226562 2.101562 8.8125 0.78125 C 7.40625 -0.539062 6.28125 -2.179688 5.4375 -4.140625 C 4.59375 -6.097656 3.953125 -8.171875 3.515625 -10.359375 C 3.078125 -12.546875 2.75 -14.414062 2.53125 -15.96875 C 2.175781 -18.207031 1.875 -20.410156 1.625 -22.578125 C 1.382812 -24.742188 1.164062 -26.953125 0.96875 -29.203125 C 0.875 -30.222656 0.695312 -32.109375 0.4375 -34.859375 C 0.1875 -37.617188 -0.078125 -40.765625 -0.359375 -44.296875 C -0.640625 -47.835938 -0.914062 -51.53125 -1.1875 -55.375 C -1.46875 -59.226562 -1.679688 -62.8125 -1.828125 -66.125 C -1.984375 -69.445312 -2.066406 -72.28125 -2.078125 -74.625 C -2.097656 -76.96875 -1.96875 -78.347656 -1.6875 -78.765625 C -1.632812 -78.859375 -1.425781 -79.054688 -1.0625 -79.359375 C -0.695312 -79.671875 -0.289062 -79.984375 0.15625 -80.296875 C 0.601562 -80.609375 1.007812 -80.894531 1.375 -81.15625 C 1.738281 -81.425781 1.992188 -81.609375 2.140625 -81.703125 C 5.523438 -84.035156 9.285156 -86.140625 13.421875 -88.015625 C 17.566406 -89.890625 21.734375 -91.019531 25.921875 -91.40625 C 29.484375 -91.726562 32.785156 -91.300781 35.828125 -90.125 C 38.867188 -88.957031 41.523438 -87.28125 43.796875 -85.09375 C 46.078125 -82.914062 47.90625 -80.304688 49.28125 -77.265625 C 50.664062 -74.222656 51.515625 -71.03125 51.828125 -67.6875 Z M 31.921875 -63.171875 C 31.773438 -64.722656 31.28125 -66.046875 30.4375 -67.140625 C 29.59375 -68.234375 28.3125 -68.703125 26.59375 -68.546875 C 25.125 -68.410156 23.675781 -67.984375 22.25 -67.265625 C 20.832031 -66.554688 19.53125 -65.832031 18.34375 -65.09375 C 18.820312 -62.394531 19.273438 -59.773438 19.703125 -57.234375 C 20.128906 -54.691406 20.390625 -52.050781 20.484375 -49.3125 C 21.679688 -50.050781 22.976562 -50.894531 24.375 -51.84375 C 25.78125 -52.789062 27.054688 -53.828125 28.203125 -54.953125 C 29.347656 -56.085938 30.289062 -57.332031 31.03125 -58.6875 C 31.769531 -60.050781 32.066406 -61.546875 31.921875 -63.171875 Z M 31.921875 -63.171875 "/></g></g></g><g fill="#3b1685" fill-opacity="1"><g transform="translate(135.874838, 206.912839)"><g><path d="M 50.390625 -25.515625 C 50.640625 -22.878906 50.039062 -20.222656 48.59375 -17.546875 C 47.15625 -14.867188 45.265625 -12.425781 42.921875 -10.21875 C 40.585938 -8.007812 38.039062 -6.171875 35.28125 -4.703125 C 32.519531 -3.234375 29.9375 -2.390625 27.53125 -2.171875 C 23.40625 -1.796875 19.640625 -2.484375 16.234375 -4.234375 C 12.828125 -5.992188 9.890625 -8.367188 7.421875 -11.359375 C 4.953125 -14.347656 2.976562 -17.710938 1.5 -21.453125 C 0.0195312 -25.191406 -0.882812 -28.882812 -1.21875 -32.53125 C -1.570312 -36.414062 -1.40625 -40.617188 -0.71875 -45.140625 C -0.0390625 -49.671875 1.226562 -53.898438 3.09375 -57.828125 C 4.96875 -61.753906 7.476562 -65.113281 10.625 -67.90625 C 13.78125 -70.707031 17.6875 -72.320312 22.34375 -72.75 C 24.976562 -72.988281 27.535156 -72.769531 30.015625 -72.09375 C 32.503906 -71.425781 34.71875 -70.359375 36.65625 -68.890625 C 38.601562 -67.429688 40.222656 -65.625 41.515625 -63.46875 C 42.804688 -61.3125 43.578125 -58.835938 43.828125 -56.046875 C 44.160156 -52.398438 43.695312 -48.910156 42.4375 -45.578125 C 41.1875 -42.253906 39.382812 -39.304688 37.03125 -36.734375 C 34.6875 -34.171875 31.910156 -32.019531 28.703125 -30.28125 C 25.492188 -28.539062 22.144531 -27.429688 18.65625 -26.953125 C 19.175781 -24.734375 20.238281 -23.1875 21.84375 -22.3125 C 23.457031 -21.445312 25.3125 -21.113281 27.40625 -21.3125 C 28.96875 -21.445312 30.445312 -21.96875 31.84375 -22.875 C 33.238281 -23.78125 34.59375 -24.785156 35.90625 -25.890625 C 37.21875 -26.992188 38.515625 -27.992188 39.796875 -28.890625 C 41.085938 -29.796875 42.4375 -30.3125 43.84375 -30.4375 C 45.382812 -30.582031 46.820312 -30.207031 48.15625 -29.3125 C 49.5 -28.425781 50.242188 -27.160156 50.390625 -25.515625 Z M 28.90625 -52.328125 C 28.8125 -53.335938 28.441406 -54.359375 27.796875 -55.390625 C 27.160156 -56.429688 26.257812 -56.894531 25.09375 -56.78125 C 23.394531 -56.625 22.003906 -56.046875 20.921875 -55.046875 C 19.835938 -54.054688 18.96875 -52.84375 18.3125 -51.40625 C 17.65625 -49.976562 17.1875 -48.472656 16.90625 -46.890625 C 16.625 -45.304688 16.503906 -43.84375 16.546875 -42.5 C 17.609375 -42.832031 18.878906 -43.265625 20.359375 -43.796875 C 21.835938 -44.328125 23.222656 -44.984375 24.515625 -45.765625 C 25.816406 -46.546875 26.90625 -47.484375 27.78125 -48.578125 C 28.65625 -49.679688 29.03125 -50.929688 28.90625 -52.328125 Z M 28.90625 -52.328125 "/></g></g></g><g fill="#3b1685" fill-opacity="1"><g transform="translate(182.538874, 202.635831)"><g><path d="M 31.03125 1.375 C 25.507812 1.882812 21.144531 1.5625 17.9375 0.40625 C 14.738281 -0.738281 12.265625 -2.5625 10.515625 -5.0625 C 8.765625 -7.570312 7.5625 -10.675781 6.90625 -14.375 C 6.25 -18.070312 5.710938 -22.210938 5.296875 -26.796875 C 4.960938 -30.453125 4.742188 -34.132812 4.640625 -37.84375 C 4.535156 -41.550781 4.523438 -45.519531 4.609375 -49.75 C 3.515625 -49.65625 2.65625 -49.554688 2.03125 -49.453125 C 1.414062 -49.359375 0.921875 -49.289062 0.546875 -49.25 C -1.941406 -49.019531 -4.144531 -49.363281 -6.0625 -50.28125 C -7.988281 -51.207031 -9.054688 -52.796875 -9.265625 -55.046875 C -9.390625 -56.453125 -8.976562 -57.742188 -8.03125 -58.921875 C -7.09375 -60.109375 -5.84375 -61.164062 -4.28125 -62.09375 C -2.71875 -63.019531 -1.007812 -63.800781 0.84375 -64.4375 C 2.707031 -65.082031 4.484375 -65.5625 6.171875 -65.875 C 5.972656 -68.039062 5.90625 -70.457031 5.96875 -73.125 C 6.039062 -75.789062 6.378906 -78.304688 6.984375 -80.671875 C 7.597656 -83.046875 8.53125 -85.066406 9.78125 -86.734375 C 11.039062 -88.410156 12.757812 -89.351562 14.9375 -89.5625 C 16.164062 -89.664062 17.300781 -89.394531 18.34375 -88.75 C 19.394531 -88.113281 20.28125 -87.257812 21 -86.1875 C 21.71875 -85.113281 22.296875 -83.894531 22.734375 -82.53125 C 23.171875 -81.164062 23.453125 -79.820312 23.578125 -78.5 C 23.722656 -76.945312 23.75 -75.34375 23.65625 -73.6875 C 23.570312 -72.039062 23.332031 -69.984375 22.9375 -67.515625 C 24.25 -67.796875 25.128906 -67.972656 25.578125 -68.046875 C 26.035156 -68.128906 26.460938 -68.191406 26.859375 -68.234375 C 28.179688 -68.347656 29.570312 -68.359375 31.03125 -68.265625 C 32.488281 -68.171875 33.84375 -67.90625 35.09375 -67.46875 C 36.351562 -67.03125 37.410156 -66.398438 38.265625 -65.578125 C 39.128906 -64.753906 39.617188 -63.71875 39.734375 -62.46875 C 39.859375 -61.070312 39.40625 -59.78125 38.375 -58.59375 C 37.351562 -57.414062 36.019531 -56.351562 34.375 -55.40625 C 32.738281 -54.46875 30.96875 -53.695312 29.0625 -53.09375 C 27.164062 -52.5 25.367188 -52.046875 23.671875 -51.734375 C 23.515625 -48.503906 23.457031 -45.539062 23.5 -42.84375 C 23.550781 -40.144531 23.585938 -37.425781 23.609375 -34.6875 C 23.566406 -33.351562 23.546875 -32 23.546875 -30.625 C 23.554688 -29.257812 23.628906 -27.878906 23.765625 -26.484375 C 23.847656 -25.472656 23.988281 -24.289062 24.1875 -22.9375 C 24.394531 -21.59375 24.789062 -20.320312 25.375 -19.125 C 25.957031 -17.925781 26.796875 -16.925781 27.890625 -16.125 C 28.984375 -15.320312 30.421875 -15 32.203125 -15.15625 C 33.296875 -15.257812 34.414062 -15.460938 35.5625 -15.765625 C 36.707031 -16.066406 37.859375 -16.273438 39.015625 -16.390625 C 41.035156 -16.566406 42.554688 -15.992188 43.578125 -14.671875 C 44.597656 -13.359375 45.207031 -11.617188 45.40625 -9.453125 C 45.5625 -7.816406 45.207031 -6.351562 44.34375 -5.0625 C 43.476562 -3.769531 42.34375 -2.6875 40.9375 -1.8125 C 39.539062 -0.9375 37.945312 -0.222656 36.15625 0.328125 C 34.363281 0.878906 32.65625 1.226562 31.03125 1.375 Z M 31.03125 1.375 "/></g></g></g><g fill="#000000" fill-opacity="0.4"><g transform="translate(144.468379, 251.633215)"><g><path d="M 20.421875 0.953125 C 16.992188 0.953125 13.898438 0.148438 11.140625 -1.453125 C 8.378906 -3.066406 6.203125 -5.253906 4.609375 -8.015625 C 3.023438 -10.773438 2.234375 -13.875 2.234375 -17.3125 C 2.234375 -20.75 3.023438 -23.820312 4.609375 -26.53125 C 6.203125 -29.25 8.378906 -31.394531 11.140625 -32.96875 C 13.898438 -34.539062 17.019531 -35.328125 20.5 -35.328125 C 23.46875 -35.328125 26.171875 -34.738281 28.609375 -33.5625 C 31.046875 -32.394531 33.082031 -30.75 34.71875 -28.625 C 36.351562 -26.507812 37.445312 -24.050781 38 -21.25 L 28.765625 -21.25 C 28.003906 -22.945312 26.890625 -24.265625 25.421875 -25.203125 C 23.960938 -26.140625 22.296875 -26.609375 20.421875 -26.609375 C 18.773438 -26.609375 17.28125 -26.191406 15.9375 -25.359375 C 14.601562 -24.535156 13.550781 -23.421875 12.78125 -22.015625 C 12.019531 -20.617188 11.640625 -19.03125 11.640625 -17.25 C 11.640625 -15.46875 12.019531 -13.863281 12.78125 -12.4375 C 13.550781 -11.019531 14.601562 -9.882812 15.9375 -9.03125 C 17.28125 -8.1875 18.773438 -7.765625 20.421875 -7.765625 C 22.335938 -7.765625 24.003906 -8.257812 25.421875 -9.25 C 26.847656 -10.25 27.960938 -11.6875 28.765625 -13.5625 L 38.125 -13.5625 C 37.570312 -10.675781 36.46875 -8.140625 34.8125 -5.953125 C 33.15625 -3.765625 31.097656 -2.066406 28.640625 -0.859375 C 26.179688 0.347656 23.441406 0.953125 20.421875 0.953125 Z M 20.421875 0.953125 "/></g></g></g><g fill="#000000" fill-opacity="0.4"><g transform="translate(180.611425, 251.633215)"><g><path d="M 4.453125 0 L 4.453125 -46.78125 L 13.75 -46.78125 L 13.75 0 Z M 4.453125 0 "/></g></g></g><g fill="#000000" fill-opacity="0.4"><g transform="translate(195.182977, 251.633215)"><g><path d="M 20.171875 0.953125 C 16.953125 0.953125 14.117188 0.304688 11.671875 -0.984375 C 9.234375 -2.273438 7.347656 -4.078125 6.015625 -6.390625 C 4.679688 -8.703125 4.015625 -11.410156 4.015625 -14.515625 L 4.015625 -34.359375 L 13.296875 -34.359375 L 13.296875 -15.59375 C 13.296875 -13.132812 13.898438 -11.210938 15.109375 -9.828125 C 16.316406 -8.453125 18.003906 -7.765625 20.171875 -7.765625 C 22.335938 -7.765625 24.015625 -8.460938 25.203125 -9.859375 C 26.390625 -11.265625 26.984375 -13.175781 26.984375 -15.59375 L 26.984375 -34.359375 L 36.28125 -34.359375 L 36.28125 -14.515625 C 36.28125 -11.410156 35.609375 -8.703125 34.265625 -6.390625 C 32.929688 -4.078125 31.054688 -2.273438 28.640625 -0.984375 C 26.222656 0.304688 23.398438 0.953125 20.171875 0.953125 Z M 20.171875 0.953125 "/></g></g></g><g fill="#000000" fill-opacity="0.4"><g transform="translate(231.835088, 251.633215)"><g><path d="M 23.171875 -35.328125 C 26.691406 -35.328125 29.804688 -34.539062 32.515625 -32.96875 C 35.234375 -31.394531 37.363281 -29.238281 38.90625 -26.5 C 40.457031 -23.769531 41.234375 -20.664062 41.234375 -17.1875 C 41.234375 -13.707031 40.457031 -10.597656 38.90625 -7.859375 C 37.363281 -5.117188 35.234375 -2.960938 32.515625 -1.390625 C 29.804688 0.171875 26.691406 0.953125 23.171875 0.953125 C 21.085938 0.953125 19.132812 0.625 17.3125 -0.03125 C 15.488281 -0.6875 13.851562 -1.628906 12.40625 -2.859375 L 11.328125 0 L 4.453125 0 L 4.453125 -46.78125 L 13.75 -46.78125 L 13.75 -32.515625 C 15.0625 -33.410156 16.515625 -34.101562 18.109375 -34.59375 C 19.703125 -35.082031 21.390625 -35.328125 23.171875 -35.328125 Z M 22.40625 -7.828125 C 24.226562 -7.828125 25.835938 -8.226562 27.234375 -9.03125 C 28.640625 -9.84375 29.742188 -10.957031 30.546875 -12.375 C 31.347656 -13.800781 31.75 -15.40625 31.75 -17.1875 C 31.75 -18.96875 31.347656 -20.566406 30.546875 -21.984375 C 29.742188 -23.410156 28.640625 -24.535156 27.234375 -25.359375 C 25.835938 -26.191406 24.226562 -26.609375 22.40625 -26.609375 C 20.625 -26.609375 19.019531 -26.191406 17.59375 -25.359375 C 16.175781 -24.535156 15.0625 -23.410156 14.25 -21.984375 C 13.445312 -20.566406 13.046875 -18.96875 13.046875 -17.1875 C 13.046875 -15.40625 13.445312 -13.8125 14.25 -12.40625 C 15.0625 -11.007812 16.175781 -9.894531 17.59375 -9.0625 C 19.019531 -8.238281 20.625 -7.828125 22.40625 -7.828125 Z M 22.40625 -7.828125 "/></g></g></g><g fill="#000000" fill-opacity="1"><g transform="translate(142.823066, 250.25263)"><g><path d="M 20.421875 0.953125 C 16.992188 0.953125 13.898438 0.148438 11.140625 -1.453125 C 8.378906 -3.066406 6.203125 -5.253906 4.609375 -8.015625 C 3.023438 -10.773438 2.234375 -13.875 2.234375 -17.3125 C 2.234375 -20.75 3.023438 -23.820312 4.609375 -26.53125 C 6.203125 -29.25 8.378906 -31.394531 11.140625 -32.96875 C 13.898438 -34.539062 17.019531 -35.328125 20.5 -35.328125 C 23.46875 -35.328125 26.171875 -34.738281 28.609375 -33.5625 C 31.046875 -32.394531 33.082031 -30.75 34.71875 -28.625 C 36.351562 -26.507812 37.445312 -24.050781 38 -21.25 L 28.765625 -21.25 C 28.003906 -22.945312 26.890625 -24.265625 25.421875 -25.203125 C 23.960938 -26.140625 22.296875 -26.609375 20.421875 -26.609375 C 18.773438 -26.609375 17.28125 -26.191406 15.9375 -25.359375 C 14.601562 -24.535156 13.550781 -23.421875 12.78125 -22.015625 C 12.019531 -20.617188 11.640625 -19.03125 11.640625 -17.25 C 11.640625 -15.46875 12.019531 -13.863281 12.78125 -12.4375 C 13.550781 -11.019531 14.601562 -9.882812 15.9375 -9.03125 C 17.28125 -8.1875 18.773438 -7.765625 20.421875 -7.765625 C 22.335938 -7.765625 24.003906 -8.257812 25.421875 -9.25 C 26.847656 -10.25 27.960938 -11.6875 28.765625 -13.5625 L 38.125 -13.5625 C 37.570312 -10.675781 36.46875 -8.140625 34.8125 -5.953125 C 33.15625 -3.765625 31.097656 -2.066406 28.640625 -0.859375 C 26.179688 0.347656 23.441406 0.953125 20.421875 0.953125 Z M 20.421875 0.953125 "/></g></g></g><g fill="#000000" fill-opacity="1"><g transform="translate(178.966112, 250.25263)"><g><path d="M 4.453125 0 L 4.453125 -46.78125 L 13.75 -46.78125 L 13.75 0 Z M 4.453125 0 "/></g></g></g><g fill="#000000" fill-opacity="1"><g transform="translate(193.537665, 250.25263)"><g><path d="M 20.171875 0.953125 C 16.953125 0.953125 14.117188 0.304688 11.671875 -0.984375 C 9.234375 -2.273438 7.347656 -4.078125 6.015625 -6.390625 C 4.679688 -8.703125 4.015625 -11.410156 4.015625 -14.515625 L 4.015625 -34.359375 L 13.296875 -34.359375 L 13.296875 -15.59375 C 13.296875 -13.132812 13.898438 -11.210938 15.109375 -9.828125 C 16.316406 -8.453125 18.003906 -7.765625 20.171875 -7.765625 C 22.335938 -7.765625 24.015625 -8.460938 25.203125 -9.859375 C 26.390625 -11.265625 26.984375 -13.175781 26.984375 -15.59375 L 26.984375 -34.359375 L 36.28125 -34.359375 L 36.28125 -14.515625 C 36.28125 -11.410156 35.609375 -8.703125 34.265625 -6.390625 C 32.929688 -4.078125 31.054688 -2.273438 28.640625 -0.984375 C 26.222656 0.304688 23.398438 0.953125 20.171875 0.953125 Z M 20.171875 0.953125 "/></g></g></g><g fill="#000000" fill-opacity="1"><g transform="translate(230.189775, 250.25263)"><g><path d="M 23.171875 -35.328125 C 26.691406 -35.328125 29.804688 -34.539062 32.515625 -32.96875 C 35.234375 -31.394531 37.363281 -29.238281 38.90625 -26.5 C 40.457031 -23.769531 41.234375 -20.664062 41.234375 -17.1875 C 41.234375 -13.707031 40.457031 -10.597656 38.90625 -7.859375 C 37.363281 -5.117188 35.234375 -2.960938 32.515625 -1.390625 C 29.804688 0.171875 26.691406 0.953125 23.171875 0.953125 C 21.085938 0.953125 19.132812 0.625 17.3125 -0.03125 C 15.488281 -0.6875 13.851562 -1.628906 12.40625 -2.859375 L 11.328125 0 L 4.453125 0 L 4.453125 -46.78125 L 13.75 -46.78125 L 13.75 -32.515625 C 15.0625 -33.410156 16.515625 -34.101562 18.109375 -34.59375 C 19.703125 -35.082031 21.390625 -35.328125 23.171875 -35.328125 Z M 22.40625 -7.828125 C 24.226562 -7.828125 25.835938 -8.226562 27.234375 -9.03125 C 28.640625 -9.84375 29.742188 -10.957031 30.546875 -12.375 C 31.347656 -13.800781 31.75 -15.40625 31.75 -17.1875 C 31.75 -18.96875 31.347656 -20.566406 30.546875 -21.984375 C 29.742188 -23.410156 28.640625 -24.535156 27.234375 -25.359375 C 25.835938 -26.191406 24.226562 -26.609375 22.40625 -26.609375 C 20.625 -26.609375 19.019531 -26.191406 17.59375 -25.359375 C 16.175781 -24.535156 15.0625 -23.410156 14.25 -21.984375 C 13.445312 -20.566406 13.046875 -18.96875 13.046875 -17.1875 C 13.046875 -15.40625 13.445312 -13.8125 14.25 -12.40625 C 15.0625 -11.007812 16.175781 -9.894531 17.59375 -9.0625 C 19.019531 -8.238281 20.625 -7.828125 22.40625 -7.828125 Z M 22.40625 -7.828125 "/></g></g></g><g clip-path="url(#b3e976563e)"><path fill="#000000" d="M 265.75 233 C 265.75 239.777344 260.257812 245.269531 253.480469 245.269531 C 246.703125 245.269531 241.210938 239.777344 241.210938 233 C 241.210938 226.222656 246.703125 220.730469 253.480469 220.730469 C 260.257812 220.730469 265.75 226.222656 265.75 233 " fill-opacity="1" fill-rule="nonzero"/></g><g clip-path="url(#6ff5f0274f)"><path fill="#000000" d="M 265.425781 233 C 265.425781 239.597656 260.078125 244.945312 253.480469 244.945312 C 246.882812 244.945312 241.53125 239.597656 241.53125 233 C 241.53125 226.402344 246.882812 221.050781 253.480469 221.050781 C 260.078125 221.050781 265.425781 226.402344 265.425781 233 " fill-opacity="1" fill-rule="nonzero"/><path fill="#000000" d="M 265.171875 233 C 265.171875 239.457031 259.9375 244.691406 253.480469 244.691406 C 247.023438 244.691406 241.789062 239.457031 241.789062 233 C 241.789062 226.542969 247.023438 221.308594 253.480469 221.308594 C 259.9375 221.308594 265.171875 226.542969 265.171875 233 " fill-opacity="1" fill-rule="nonzero"/></g><g clip-path="url(#4581038516)"><path fill="#000000" d="M 265.15625 233.65625 L 261.527344 230.726562 L 259.75 232.742188 L 256.625 230.011719 L 254.875 231.867188 L 252.464844 229.03125 L 249.125 230.410156 L 249.519531 231.308594 L 252.199219 234.144531 L 251.375 234.570312 L 248.78125 231.390625 L 246.527344 234.886719 L 250.261719 239.605469 L 253.214844 244.6875 C 253.304688 244.691406 253.390625 244.691406 253.480469 244.691406 C 259.71875 244.691406 264.816406 239.808594 265.15625 233.65625 " fill-opacity="1" fill-rule="nonzero"/></g><path fill="#000000" d="M 250.921875 227.308594 C 254.125 226.859375 254.382812 232.59375 251.417969 232.457031 C 249.035156 232.34375 248.136719 227.699219 250.921875 227.308594 " fill-opacity="1" fill-rule="evenodd"/><path fill="#000000" d="M 251.050781 228.085938 C 253.277344 227.777344 253.457031 231.765625 251.394531 231.667969 C 249.738281 231.59375 249.113281 228.359375 251.050781 228.085938 " fill-opacity="1" fill-rule="evenodd"/><path fill="#000000" d="M 256.070312 227.308594 C 259.597656 226.539062 259.1875 232.804688 255.902344 232.457031 C 253.304688 232.179688 253.8125 227.800781 256.070312 227.308594 " fill-opacity="1" fill-rule="evenodd"/><path fill="#000000" d="M 256.148438 228.023438 C 258.683594 227.472656 258.386719 231.976562 256.03125 231.722656 C 254.164062 231.527344 254.527344 228.378906 256.148438 228.023438 " fill-opacity="1" fill-rule="evenodd"/><path fill="#000000" d="M 249.757812 234.199219 C 248.503906 236.941406 244.679688 235.003906 245.109375 232.289062 C 245.558594 229.429688 250.671875 230.890625 249.757812 234.199219 " fill-opacity="1" fill-rule="evenodd"/><path fill="#000000" d="M 249.054688 233.875 C 248.1875 235.773438 245.539062 234.433594 245.835938 232.554688 C 246.144531 230.574219 249.6875 231.582031 249.054688 233.875 " fill-opacity="1" fill-rule="evenodd"/><path fill="#000000" d="M 260.140625 230.796875 C 260.964844 230.636719 261.996094 230.929688 262.382812 231.625 C 263.445312 233.546875 261.484375 235.898438 259.558594 235.695312 C 258.5 235.582031 257.886719 234.683594 257.8125 233.867188 C 257.65625 232.125 258.902344 231.035156 260.140625 230.796875 " fill-opacity="1" fill-rule="evenodd"/><path fill="#000000" d="M 260.140625 230.796875 C 260.964844 230.636719 261.996094 230.929688 262.382812 231.625 C 263.445312 233.546875 261.484375 235.898438 259.558594 235.695312 C 258.5 235.582031 257.886719 234.683594 257.8125 233.867188 C 257.65625 232.125 258.902344 231.035156 260.140625 230.796875 " fill-opacity="1" fill-rule="evenodd"/><path fill="#000000" d="M 260.167969 231.496094 C 260.757812 231.382812 261.492188 231.589844 261.765625 232.085938 C 262.523438 233.457031 261.128906 235.132812 259.753906 234.988281 C 259 234.90625 258.5625 234.265625 258.511719 233.683594 C 258.398438 232.441406 259.285156 231.667969 260.167969 231.496094 " fill-opacity="1" fill-rule="evenodd"/><path fill="#000000" d="M 252.996094 233.371094 C 255.90625 232.867188 258.578125 234.964844 257.980469 238.519531 C 257.855469 239.253906 257.222656 240.292969 256.320312 240.34375 C 255.589844 240.386719 254.734375 239.675781 253.828125 239.683594 C 252.699219 239.6875 251.808594 240.6875 250.753906 240.179688 C 249.867188 239.753906 249.507812 238.027344 249.675781 236.773438 C 249.914062 234.964844 251.242188 233.671875 252.996094 233.371094 " fill-opacity="1" fill-rule="evenodd"/><path fill="#000000" d="M 253.171875 234.34375 C 255.488281 233.984375 257.617188 235.492188 257.140625 238.050781 C 257.042969 238.578125 256.539062 239.328125 255.816406 239.363281 C 255.234375 239.394531 254.554688 238.882812 253.832031 238.886719 C 252.933594 238.890625 252.226562 239.609375 251.382812 239.246094 C 250.675781 238.9375 250.390625 237.699219 250.523438 236.792969 C 250.714844 235.492188 251.773438 234.5625 253.171875 234.34375 " fill-opacity="1" fill-rule="evenodd"/><path fill="#ffbc4c" d="M 250.523438 226.910156 C 253.726562 226.460938 253.984375 232.199219 251.019531 232.058594 C 248.636719 231.945312 247.738281 227.300781 250.523438 226.910156 " fill-opacity="1" fill-rule="evenodd"/><path fill="#ffbc4c" d="M 250.652344 227.691406 C 252.878906 227.378906 253.058594 231.367188 251 231.273438 C 249.339844 231.195312 248.714844 227.960938 250.652344 227.691406 " fill-opacity="1" fill-rule="evenodd"/><path fill="#ffbc4c" d="M 255.671875 226.910156 C 259.199219 226.140625 258.789062 232.40625 255.503906 232.058594 C 252.90625 231.78125 253.414062 227.402344 255.671875 226.910156 " fill-opacity="1" fill-rule="evenodd"/><path fill="#ffbc4c" d="M 255.75 227.628906 C 258.285156 227.074219 257.988281 231.578125 255.632812 231.328125 C 253.765625 231.128906 254.128906 227.980469 255.75 227.628906 " fill-opacity="1" fill-rule="evenodd"/><path fill="#ffbc4c" d="M 249.359375 233.804688 C 248.105469 236.542969 244.28125 234.605469 244.710938 231.894531 C 245.160156 229.035156 250.273438 230.492188 249.359375 233.804688 " fill-opacity="1" fill-rule="evenodd"/><path fill="#ffbc4c" d="M 248.65625 233.480469 C 247.789062 235.375 245.140625 234.035156 245.4375 232.15625 C 245.75 230.175781 249.289062 231.183594 248.65625 233.480469 " fill-opacity="1" fill-rule="evenodd"/><path fill="#ffbc4c" d="M 259.742188 230.398438 C 260.566406 230.238281 261.597656 230.53125 261.984375 231.230469 C 263.046875 233.152344 261.089844 235.5 259.160156 235.296875 C 258.101562 235.1875 257.488281 234.285156 257.417969 233.472656 C 257.257812 231.726562 258.503906 230.636719 259.742188 230.398438 " fill-opacity="1" fill-rule="evenodd"/><path fill="#ffbc4c" d="M 259.742188 230.398438 C 260.566406 230.238281 261.597656 230.53125 261.984375 231.230469 C 263.046875 233.152344 261.089844 235.5 259.160156 235.296875 C 258.101562 235.1875 257.488281 234.285156 257.417969 233.472656 C 257.257812 231.726562 258.503906 230.636719 259.742188 230.398438 " fill-opacity="1" fill-rule="evenodd"/><path fill="#ffbc4c" d="M 259.769531 231.097656 C 260.359375 230.984375 261.09375 231.195312 261.367188 231.691406 C 262.125 233.058594 260.730469 234.734375 259.355469 234.589844 C 258.601562 234.507812 258.167969 233.867188 258.113281 233.289062 C 258.003906 232.042969 258.890625 231.269531 259.769531 231.097656 " fill-opacity="1" fill-rule="evenodd"/><path fill="#ffbc4c" d="M 252.597656 232.972656 C 255.507812 232.46875 258.179688 234.566406 257.582031 238.121094 C 257.457031 238.855469 256.824219 239.898438 255.921875 239.949219 C 255.191406 239.988281 254.339844 239.28125 253.429688 239.285156 C 252.300781 239.289062 251.414062 240.289062 250.355469 239.78125 C 249.46875 239.355469 249.113281 237.632812 249.277344 236.378906 C 249.515625 234.570312 250.847656 233.273438 252.597656 232.972656 " fill-opacity="1" fill-rule="evenodd"/><path fill="#ffbc4c" d="M 252.773438 233.945312 C 255.089844 233.585938 257.21875 235.09375 256.742188 237.652344 C 256.644531 238.183594 256.140625 238.929688 255.417969 238.96875 C 254.839844 238.996094 254.160156 238.488281 253.433594 238.488281 C 252.535156 238.492188 251.828125 239.214844 250.984375 238.847656 C 250.28125 238.542969 249.992188 237.300781 250.125 236.398438 C 250.316406 235.09375 251.375 234.164062 252.773438 233.945312 " fill-opacity="1" fill-rule="evenodd"/><g clip-path="url(#e539272e3c)"><g clip-path="url(#e1efd7e6c4)"><path fill="#3b1685" d="M 220.78125 131.132812 L 293.761719 131.132812 L 293.761719 204.113281 L 220.78125 204.113281 Z M 220.78125 131.132812 " fill-opacity="1" fill-rule="nonzero"/></g></g><g clip-path="url(#f9d84d2037)"><path fill="#ffbc4c" d="M 279.207031 171.695312 L 278.785156 171.710938 C 276.890625 171.886719 275.199219 172.574219 273.707031 173.765625 C 272.878906 174.511719 272.289062 175.125 271.941406 175.601562 C 269.230469 179.792969 267.628906 182.121094 267.140625 182.589844 C 266.078125 183.660156 264.828125 184.351562 263.382812 184.664062 C 261.394531 184.824219 260 184.324219 259.199219 183.164062 C 258.941406 182.804688 259.074219 181 259.597656 177.753906 L 257.304688 175.21875 C 257.164062 178.40625 256.363281 180.761719 254.902344 182.285156 C 253.671875 183.511719 251.738281 184.265625 249.109375 184.550781 C 246.894531 184.742188 245.21875 184.460938 244.078125 183.707031 C 243.4375 183.328125 242.828125 182.816406 242.25 182.167969 C 239.855469 178.839844 238.425781 177.042969 237.964844 176.777344 C 236.898438 175.875 236.183594 175.777344 235.820312 176.492188 C 235.742188 176.777344 235.804688 177.15625 236.011719 177.625 C 237.070312 179.292969 238.199219 181.453125 239.398438 184.105469 C 239.617188 184.480469 239.839844 184.824219 240.066406 185.132812 C 241.621094 186.964844 243.125 188.140625 244.570312 188.660156 C 245.066406 188.867188 245.570312 189.023438 246.078125 189.125 L 246.84375 189.242188 C 248.023438 189.316406 249.164062 189.242188 250.273438 189.015625 C 250.589844 188.984375 251.378906 188.742188 252.648438 188.289062 C 253.214844 188.101562 254.785156 187.273438 257.351562 185.808594 C 257.710938 185.632812 258.085938 185.558594 258.480469 185.585938 C 258.753906 185.589844 259.160156 185.757812 259.707031 186.097656 L 264.394531 189.488281 C 265.308594 190.085938 266.15625 190.558594 266.9375 190.90625 C 269.128906 191.796875 271.128906 192.183594 272.9375 192.066406 L 274.871094 191.9375 L 276.15625 191.664062 L 277.398438 191.21875 C 278.214844 190.863281 279.007812 190.390625 279.769531 189.800781 C 282.328125 187.777344 284.105469 185.210938 285.097656 182.105469 C 285.839844 179.425781 285.585938 176.953125 284.335938 174.695312 C 283.289062 172.8125 281.582031 171.8125 279.207031 171.695312 " fill-opacity="0.996" fill-rule="nonzero"/></g><path fill="#3b1685" d="M 278.261719 174.714844 L 277.949219 174.726562 C 277.234375 174.828125 276.738281 174.96875 276.457031 175.148438 C 275.851562 175.464844 275.339844 175.863281 274.933594 176.347656 C 274.761719 176.542969 274.601562 176.75 274.453125 176.976562 L 271.683594 181.386719 L 267.828125 186.082031 C 268.308594 186.128906 268.929688 185.941406 269.699219 185.523438 C 271.816406 183.847656 273.109375 182.902344 273.582031 182.691406 C 274.457031 182.292969 275.085938 182.242188 275.476562 182.535156 C 275.757812 182.785156 275.84375 183.117188 275.730469 183.527344 L 275.613281 183.851562 C 275.507812 184.078125 275.355469 184.320312 275.15625 184.585938 C 274.953125 184.851562 274.703125 185.136719 274.402344 185.445312 C 273.917969 185.902344 273.265625 186.375 272.4375 186.863281 C 271.476562 187.394531 270.390625 187.894531 269.179688 188.363281 C 269.054688 188.429688 268.964844 188.492188 268.910156 188.5625 C 268.859375 188.890625 269.457031 189.03125 270.703125 188.988281 C 273.050781 188.867188 275.210938 188.269531 277.1875 187.199219 L 278.105469 186.640625 C 278.699219 186.242188 279.253906 185.792969 279.769531 185.300781 C 280.71875 184.335938 281.351562 183.488281 281.667969 182.753906 C 281.867188 182.355469 282.027344 181.949219 282.148438 181.535156 C 282.257812 181.335938 282.355469 180.703125 282.4375 179.640625 C 282.425781 178.703125 282.25 177.863281 281.910156 177.117188 C 281.589844 176.402344 281.144531 175.835938 280.574219 175.425781 C 280.289062 175.222656 279.972656 175.054688 279.625 174.925781 C 279.054688 174.769531 278.601562 174.699219 278.261719 174.714844 " fill-opacity="0.996" fill-rule="nonzero"/><path fill="#ffbc4c" d="M 257.066406 160 L 256.339844 160.027344 C 253.574219 160.324219 251.066406 161.179688 248.816406 162.597656 C 246.464844 164.195312 245.339844 165.992188 245.449219 167.980469 C 245.472656 168.367188 245.597656 168.773438 245.828125 169.195312 C 246.296875 169.945312 246.738281 170.496094 247.160156 170.847656 C 247.414062 171.113281 248.007812 171.59375 248.9375 172.292969 C 252.625 174.785156 254.570312 176.167969 254.773438 176.4375 C 255.46875 177 256.253906 177.945312 257.128906 179.277344 C 257.402344 179.546875 257.636719 179.679688 257.84375 179.675781 C 258.160156 179.675781 258.460938 179.542969 258.738281 179.273438 C 258.875 179.136719 259.011719 178.96875 259.140625 178.765625 C 259.210938 178.707031 259.390625 178.328125 259.683594 177.625 C 259.6875 177.675781 259.710938 177.652344 259.757812 177.554688 C 259.921875 177.085938 260.25 174.734375 260.742188 170.503906 L 259.554688 160.335938 C 258.957031 160.140625 258.125 160.027344 257.066406 160 " fill-opacity="0.996" fill-rule="nonzero"/><path fill="#ffbc4c" d="M 259.261719 160 L 259.988281 160.027344 C 262.753906 160.324219 265.261719 161.179688 267.511719 162.597656 C 269.863281 164.195312 270.984375 165.992188 270.878906 167.980469 C 270.851562 168.367188 270.726562 168.773438 270.5 169.195312 C 270.03125 169.945312 269.585938 170.496094 269.167969 170.847656 C 268.914062 171.113281 268.320312 171.59375 267.386719 172.292969 C 263.703125 174.785156 261.757812 176.167969 261.550781 176.4375 C 260.859375 177 260.074219 177.945312 259.199219 179.277344 C 258.925781 179.546875 258.6875 179.679688 258.484375 179.675781 C 258.164062 179.675781 257.867188 179.542969 257.589844 179.273438 C 257.449219 179.136719 257.316406 178.96875 257.1875 178.765625 C 257.117188 178.707031 256.933594 178.328125 256.640625 177.625 C 256.640625 177.675781 256.617188 177.652344 256.570312 177.554688 C 256.40625 177.085938 256.078125 174.734375 255.582031 170.503906 L 256.773438 160.335938 C 257.371094 160.140625 258.199219 160.027344 259.261719 160 " fill-opacity="0.996" fill-rule="nonzero"/></svg>